<?xml version="1.0" encoding="utf-8"?>
<!-- Generator: Adobe Illustrator 19.0.0, SVG Export Plug-In . SVG Version: 6.00 Build 0)  -->
<svg version="1.1" id="Layer_1" xmlns="http://www.w3.org/2000/svg" xmlns:xlink="http://www.w3.org/1999/xlink" x="0px" y="0px"
	 viewBox="0 0 769.5 370.5" style="enable-background:new 0 0 769.5 370.5;" xml:space="preserve">
<style type="text/css">
	.st0{fill:#EDEDED;}
	.st1{fill:#BFBEBE;}
</style>
<g id="XMLID_142_">
	<path id="XMLID_85_" class="st0" d="M428.3,49.8c7.1-3.5,15.7-4,23.1-1.3c7.1,2.5,13.1,7.7,16.5,14.4c3.9,7.5,4.4,16.8,1.2,24.7
		c-2.8,7.1-8.5,13-15.4,16.2c-7.7,3.5-16.9,3.5-24.5,0c-5.3-2.3-9.7-6.3-12.9-11.1c-58.7,32.1-117.4,64.1-176.1,96.2
		c1.9,2.7,2.2,6.5,0.7,9.5c39.6,30.6,79.3,61.1,118.9,91.7c4.2-4.6,9.8-7.8,15.8-9.1c7.9-1.7,16.5-0.1,23.2,4.6
		c6.3,4.3,10.8,11.1,12.3,18.5c1.6,7.7,0,16.1-4.5,22.7c-4.5,6.8-12.1,11.6-20.2,12.8c-8.1,1.3-16.7-1-23.1-6.1
		c-7-5.5-11.3-14.2-11.3-23.1c-0.1-6.2,1.8-12.3,5.3-17.3c-39.7-30.6-79.4-61.2-119-91.7c-2.2,1.5-4.9,2.1-7.5,1.6
		c-6.2,27.5-12.4,55-18.6,82.5c7.2,2.3,13.5,7.5,17.1,14.2c4.1,7.5,4.7,16.7,1.7,24.6c-2.7,7.2-8.3,13.3-15.2,16.5
		c-7.2,3.4-15.7,3.7-23.1,1c-7-2.6-13-7.9-16.3-14.6c-3.5-7-4.1-15.4-1.6-22.9c2.6-7.8,8.6-14.4,16.2-17.7
		c5.5-2.5,11.6-3.1,17.5-2.1c6.2-27.8,12.5-55.5,18.8-83.2c-0.7-0.7-1.3-1.4-1.9-2.1c-37.6,15.5-75.3,31-112.9,46.4
		c1.9,6.6,1.6,13.9-1.1,20.3c-2.9,7-8.6,12.7-15.5,15.7c-7.9,3.5-17.5,3.3-25.2-0.6c-6.5-3.2-11.7-8.8-14.4-15.4
		c-3.2-7.7-2.9-16.8,0.8-24.3c3.3-6.9,9.3-12.3,16.5-14.9c8.2-3.1,17.8-2.3,25.4,2.2c5.4,3.1,9.6,7.9,12.2,13.5
		c37.6-15.5,75.2-30.9,112.9-46.4c-0.1-1.5,0-2.9,0.4-4.3c-29.1-15.1-58.1-30.2-87.1-45.3c-4.2,5.4-10.3,9.3-17,10.7
		c-8.7,2-18.3-0.2-25.3-5.8c-10.3-8-14.1-23.1-8.8-34.9c3.1-7.4,9.4-13.4,17-16.2c7.7-2.9,16.6-2.4,24,1.3
		c7.6,3.8,13.3,11,15.4,19.2c1.9,7.5,0.7,15.8-3.2,22.5c29,15.1,58,30.1,87,45.2c2.7-2.7,7.2-3.6,10.6-1.6
		c23.8-13.4,48-26.3,72-39.5c35.1-19.2,70.3-38.4,105.4-57.6c-3.3-7.1-3.8-15.4-1.1-22.7C415.9,59.3,421.4,53.2,428.3,49.8z"/>
	<path id="XMLID_84_" class="st0" d="M357.7,253.1c20.7-39.3,41.2-78.6,62-117.8c7.9,0.1,15.8,0,23.7,0
		c5.6,10.4,11.3,20.8,16.9,31.2c-9.5,0-19.1,0-28.6,0c-2.8,4.8-5.5,9.6-8.3,14.5c14.6,0.1,29.2-0.1,43.8,0.1
		c12.6,24,25.4,48,38.1,72c-7.8,0-15.7,0-23.5,0c-9.1-15.1-18.1-30.2-27.2-45.3c-15.6,0-31.2,0-46.8,0
		c-8.9,15.1-17.7,30.2-26.6,45.3C373.4,253.1,365.6,253.1,357.7,253.1z"/>
	<g id="XMLID_182_">
		<path id="XMLID_183_" class="st0" d="M523.8,137.5c34.3,0,68.6,0.1,103,0.2c6.8,0,13.3,3.3,17.6,8.5c5.1,6.1,6.5,14.4,6.5,22.2
			c-0.2,5.5,0.3,11-0.3,16.4c-1,6.4-6.6,11-12.7,12.5c3.6,0.5,7.3,1.7,9.8,4.5c2.7,2.9,3.4,7,3.3,10.8c-0.2,8.9,0.8,18.1-2.3,26.6
			c-2.5,7.1-8.4,12.9-15.7,15c-5,1.5-10.3,1-15.5,1.1c-31.2,0-62.4,0-93.6,0c0-24.4,0-48.9,0-73.3c35.3,0,70.7,0,106,0
			c0-4.4,0-8.8,0-13.2c-35.3,0-70.7,0-106,0C523.8,158.3,523.8,147.9,523.8,137.5z M544.1,224c28.6,0,57.2,0,85.7,0
			c0-4.7,0-9.4,0-14.1c-28.6,0-57.2,0-85.7,0C544.1,214.6,544.1,219.3,544.1,224z"/>
	</g>
	<path id="XMLID_81_" class="st0" d="M684.4,137.5c7.8,0,15.7,0,23.5,0c0,12.9,0,25.8,0,38.7c-7.8-6.3-15.6-12.7-23.5-19
		C684.4,150.6,684.4,144.1,684.4,137.5z"/>
	<g id="XMLID_174_">
		<path id="XMLID_175_" class="st0" d="M256.7,152.3c12.7-4.5,25.5-8.7,38.2-13.2c-1.7,2.9-2.7,6.2-3.1,9.5
			c-2.8,1.5-5.7,3.1-8.5,4.7c-0.6-0.5-1.2-1-1.8-1.5c-0.8,0.3-1.5,0.7-2.3,1.1c-1-0.3-1.9-0.6-2.9-0.9c-0.6,0.7-1.2,1.4-1.8,2
			c-0.9,0.1-1.8,0.1-2.7,0.2c-0.2,0.9-0.3,1.9-0.5,2.9c-0.6,0.5-1.3,0.9-1.9,1.4c0,0.5,0,1.6,0.1,2.2c-3.1,1.7-6.1,3.4-9.2,5
			c-2.1-1-4.2-1.9-6.5-2.3c-2.2,0.4-4.4,1-6.6,1.6c-2.3,0.4-2.6,2.9-3.3,4.7c1.2,1,2.4,2,3.6,3c-4,1.9-7.6,4.4-11.7,6.1
			c-3.8-1.4-7.5,1.7-11.1,0.5c1-1.9,3.2-2.4,5-3.4c-0.9-2.5-3.5-4.1-6.2-4.1c-2.4,0.3-4,2.2-5,4.2c-1.4-0.7-2.7-1.4-4.1-2.1
			c1.2-1.5,2.5-2.9,3.7-4.4c-1.1-0.9-2.2-1.9-3.4-2.8c-2,1.2-4,2.5-5.1,4.7c-10.1-5.6-20.6-10.5-30.7-16.1c3,0.3,6.1,0.2,9.2,0.7
			c3.1,2.8,8.1,3.7,11.5,0.8l0.1-0.1c2.6,0,5.3,0.2,7.9,0.4c-0.4,0.8-0.9,1.6-1.3,2.4c-1.3,0.5-2.6,0.9-3.8,1.4
			c1.1,0.7,2.5,1.1,3.8,1.5c0.7,1.2,1.3,2.4,2,3.7c4.1-0.5,4.8-5.4,3.8-8.6c2.1,0.1,4.2,0.2,6.4,0.4c-0.5,1.1-1,2.2-1.5,3.3
			c1,3.6,4.1,5.5,7.5,6.6c3.6-1.2,8.2-4.6,6.3-8.9c1,0,2,0,2.9,0c0.6,0,1.8,0.1,2.4,0.2c-0.8,3.1,1,6.7,4.4,6.9
			c0.7-1.2,1.2-2.5,2.1-3.5c1.2-0.5,2.5-1,3.7-1.5c-1.4-0.4-2.7-0.8-4-1.2c-0.4-0.7-0.8-1.4-1.3-2.1c1.5-0.4,2.9-1.4,4.5-1.4
			c2.9,1.3,5.9,2.1,9,2.5c2.3-0.5,4.4-1.4,6.6-2.3C259.7,155.1,258.2,153.7,256.7,152.3z M285.8,150.3c2.4,0.1,2.3-2.7,2.8-4.4
			C287.2,147,283.9,148.2,285.8,150.3z M262.9,152.2c1.1,1.2,2.1,3.4,4.1,2.9c0.1-0.3,0.4-0.9,0.6-1.3
			C266.5,152.3,264.4,152.6,262.9,152.2z M259.7,161.2c1.6,0.6,3.3,1.3,5,1.3c0.6-0.7,0.8-2.1-0.4-2.5
			C262.8,160.1,261.2,160.6,259.7,161.2z M230.1,169.8c1.5,1.6,2.8,3.2,4.4,4.7c1.7-0.6,3.6-1.6,3.7-3.6c-1.1-1.7-3.1-2.6-4.7-3.9
			C232.2,167.6,231.3,168.9,230.1,169.8z"/>
	</g>
	<g id="XMLID_169_">
		<path id="XMLID_170_" class="st0" d="M286.2,171.4c3.6-1.8,7-3.9,10.6-5.7c2.2,2.5,4.5,5.3,7.8,6.3c-1.3,1.1-2.5,2.2-3.8,3.4
			c-2.9-1.3-6.1-1.8-9.2-2.3c0.5,2.9,0.8,5.9,2.4,8.4c-1.3,1.2-2.6,2.4-3.9,3.6c-1.3-3.2-4.2-5.2-6.7-7.3c-0.8,2.9-3,5.9-1.6,9
			c0.4,1.5,0.9,3,1.4,4.5c-1.2,1.1-2.3,2.2-3.6,3.1c-0.2-0.9-0.4-1.9-0.6-2.8c-0.5,1.3-1,2.6-1.4,3.8c-1.2,0.7-2.6,1.1-3.7,1.9
			c0,1.7,1.7,3,3.2,3.6c2.1,1,4.2-0.4,6-1.1c6.4,9.3,13,18.5,19.4,27.8c-2.4,0.7-4-1.5-5.8-2.6c-1.1,1.9-2.7,3.2-4.6,4.3
			c-4.5-3.3-8.8-6.8-13.3-10.1c3.3-1.3,6.3-3.6,7.1-7.2c-1.1-3.2-3.8-5.9-7.3-6.3c-4,0.7-5.7,4.4-7.5,7.5
			c-6.4-5.1-13-10.1-19.5-15.1c1.7-0.6,3.4-1.1,5.1-1.2c1.6,0.7,3,2,4.4,3c0.9-2.1,2.3-3.7,4.5-4.5c-1.1-1.3-2.1-2.7-3.1-4.1
			c0.3-1.8,0.6-3.5,0.9-5.3c-1.5,1-2.9,2.1-4.4,3.2c-1.6-0.1-3.1-0.3-4.7-0.7c5.2-2.8,10.4-5.7,15.6-8.5c-1.7,3-2.5,6.3-3,9.7
			c0.8,1.4,1.9,2.7,3.1,3.8c1.5-0.5,2.9-1.1,4.2-1.8c0.9-2.4,1.7-4.8,2.2-7.4c-0.4-2.2-1.4-4.2-2.1-6.3l-0.1-0.4
			c3.2-1.7,6.4-3.6,9.6-5.2c1.4,1.1,2.8,2.3,4.4,3.3C288.2,174.3,287.7,172.6,286.2,171.4z M264.9,203.1c1.6,1.3,3.3,2.5,5.1,3.7
			c1-1.1,2-2.1,3.1-2.9c-1.3-1.7-2.6-3.3-4.1-4.9C266.7,199.1,265.4,201,264.9,203.1z M285,221c1.2,1.6,2.6,3.1,4,4.6
			c2-0.2,3.9-1.6,4-3.7c-1.4-1.6-3.3-2.7-5.1-3.9C287.1,219.2,285.5,219.8,285,221z"/>
	</g>
	<g id="XMLID_165_">
		<path id="XMLID_166_" class="st0" d="M161.8,166.2c6.9,3.9,14.3,7.3,21.2,11.2c0,3.5,3.5,5,5.7,7.2c1.9,2.4,5.6,1.6,7.6-0.3
			c2,1,4,2.1,6,3c-1.3,0.3-2.6,0.6-3.9,1c-0.2,1.3-0.7,2.7-0.5,4.1c1.2,1.8,2.9,3.3,4.3,4.9c-7.2,3.1-14.4,5.9-21.6,9
			c0.8-1.4,2.1-2.4,3.3-3.5c-0.6-1.9-2-3.4-4-3.8c-1.6,1.4-3,3.1-4.3,4.7c1.1,1,2.2,2.1,2.9,3.4c-1.2,0.5-2.4,1-3.5,1.5
			c-1.6-1-3.2-2.1-5-2.8c-4.1,0.5-6.8,4.1-7.6,8c-1.5,0.6-3.1,1.2-4.6,1.9c0-1.6,0.3-3.2-0.3-4.6l-0.1-0.5c7.2-4.7,14.5-9.3,21.7-14
			c-0.4-0.7-0.8-1.5-1.2-2.2c1.2-1.3,3-2.3,3.5-4.1c-0.4-2.5-0.7-5-1.6-7.3c-1.7-1.8-3.6-3.4-5.3-5c-1.1,1.9-1.7,4-2.4,6
			C168.5,178,164.9,172.2,161.8,166.2z M185,186.5c0.2,1.7,0.7,3.3,1,4.9c-1.1,1.4-2.4,2.7-3.4,4.1c1,0.5,2,0.9,3,1.5
			c0.8,0.9,1,2.2,2,2.8c1.3-1,2.6-2.1,4-2.8c1.9,0.3,3.8,0.7,5.7,0.9c-0.9-1.5-2.2-2.7-3.3-4c-0.3-1.6,0.3-3.3,0.3-5
			c-1.9,0-3.8,0.3-5.7,0.2C187.5,188.3,186.3,187.3,185,186.5z"/>
	</g>
	<path id="XMLID_70_" class="st0" d="M684.4,170.8c7.8,6.3,15.7,12.7,23.5,19c0,5.4,0,10.7,0,16.1c-7.8-6.3-15.7-12.7-23.5-19
		C684.4,181.5,684.4,176.2,684.4,170.8z"/>
	<path id="XMLID_69_" class="st0" d="M684.4,200.5c7.8,6.3,15.6,12.7,23.5,18.9c0.1,11.9,0,23.9,0.1,35.8c-7.8,0-15.7,0-23.5,0
		C684.4,237,684.4,218.7,684.4,200.5z"/>
	<g id="XMLID_157_">
		<path id="XMLID_158_" class="st0" d="M235.4,213.3c0.1-1,0.6-2,1.5-2.5c1.4,0.2,1.1,1.8,1.5,2.8c1.5,0,2.9-0.3,4.3-0.5
			c1,0.8,2,1.7,3.1,2.5c-1.3,0.4-2.5,0.8-3.8,1.2c1.5,2,3.2,3.8,5.2,5.4c2.9,0.9,5.9,1.8,9,1.4c1.2,0.6,2.2,1.7,3.4,2.5
			c-2,2.1-4.8,1.7-7.4,1.1c0.8,1.1,1.9,2,2.4,3.2c-0.2,1.8-0.6,3.6-0.8,5.3c2.2-0.2,4.4-0.6,6.6-0.6c0.9,0.8,1.9,1.5,2.8,2.3
			c-0.1-1.5-0.7-3-0.4-4.5c0.6-1,1.3-1.8,2-2.7c1.1,0.8,2.1,1.7,3.2,2.5c-2.1,2.8-0.1,6.2,0.5,9.2c1.6,2,3.5,3.7,5.7,4.9
			c0.9-2.5,2.3-5,2.2-7.7c3.9,3,7.7,6.1,11.7,9.1c-1.1,1.1-2.2,2.3-3.3,3.5c0.3,1,1.5,2,2.4,0.9c0.6-1.3,1-2.6,1.5-3.9
			c3.5,2.6,6.9,5.3,10.4,7.9c-0.8,0.9-1.7,1.8-2.1,3c2.7,0.9,5.3,2.1,8.2,1.8c2.3,1.9,5.4,3.2,6.7,6.1c-6.9-2.4-13.4-5.9-20.2-8.7
			c1.1-1.4,2.2-2.7,3.3-4.1c-2.3,0.2-4.6,0.8-5.5,3.1c-8.1-3.7-16.3-7.2-24.4-10.9c-0.2-3.3-3.4-4.9-5.5-6.9c-1.6-1.8-4.1-0.7-6-0.5
			c-0.2,0.5-0.7,1.5-1,1.9c-1.5-0.6-2.9-1.3-4.4-1.9c-1.7-0.7-2.5,1.4-3.7,2.2c-1.7-1.1-3.3-2.4-4.9-3.7c0.2,1.7,0.8,3.4,0.7,5.2
			c-0.8,1.2-1.8,2.3-2.7,3.4c0.2,0.4,0.6,1.3,0.8,1.8c-3.5,3.5-6.8,7.3-10.2,10.9c-0.7-0.4-1.5-0.9-2.2-1.3
			c-0.1-0.5-0.2-1.4-0.3-1.9c1.1-4.2,2-8.4,2.9-12.7c1.4,0.6,2.9,1.2,4.4,1.7c1.1-1,2.2-2.1,3-3.3c0.1-2-0.7-4-1.1-6
			c-0.2-2.1-2.2-3.3-3.5-4.7C232.7,225.3,234.1,219.3,235.4,213.3z M236.2,220.7c1.4,0.4,2.9,0.7,4.4,1.1c-0.9-1.3-2.1-2.5-3.3-3.5
			C236.1,218.6,234.9,219.7,236.2,220.7z M236.7,224.3c0.5,2.5,1,5,1.8,7.5c2,2.1,4.5,3.8,6.7,5.6c1.5,0,3-0.1,4.5-0.3
			c0.4-2,1.9-4.9,0-6.5c-1.8-1.7-3.3-3.6-5.3-4.9C241.8,225.1,239.3,224.7,236.7,224.3z M277.8,250.7c0.5,0,1.6,0,2.2,0
			c0.1-1.4-0.4-2.6-0.8-3.9C277.8,247.2,278,249.4,277.8,250.7z"/>
	</g>
	<g id="XMLID_151_">
		<path id="XMLID_152_" class="st0" d="M203.4,215.5c3.1-1.3,6.3-2.4,9.3-3.8c1.1-0.1,2.1-0.1,3.2,0c-0.7,1.2-1.4,2.3-2.1,3.5
			c1.1,0.4,2.1,0.9,3.2,1.3c-2,10-4.3,19.9-6.6,29.9c-0.9-1-1.9-2-2.7-3.1c-0.1-1.9,0.6-3.7,0.8-5.5c-1.5,1-2.8,2.2-4.4,3.1
			c-1.6,0.1-3.2-0.1-4.8-0.2c0,1.7,0,3.5,0,5.3c-1.3-2.1-2.4-4.3-3.6-6.5c-6.4-0.1-12.9,0.5-19.3,0.2c0.1-0.2,0.3-0.6,0.4-0.8
			c1.2,0.8,2.5,0.9,3.8,0.3c0.3-1.5,0.7-2.9,0.9-4.4c-0.9-1.3-1.8-2.7-3.1-3.7c-1.6,0.2-3.2,1-4.5,2.1c-0.9,2.2-1.4,4.5-2,6.8
			c-1.6,0.1-3.3,0.1-4.9,0.1c-0.9-2.7-0.7-6.3-3.4-8.1c8.6-3.4,17.1-7,25.6-10.5c1.3,0.8,2.5,2,3.9,2.5c2.6-0.5,5.4-0.8,7.8-1.8
			c1.8-1.5,3.6-3.1,4.7-5.1C205.2,216.5,204,215.8,203.4,215.5z M207.3,221.8c1.6-0.3,3.3-0.7,4.8-1.2c0-0.3,0.1-0.9,0.2-1.2
			c-0.3-0.3-1-0.8-1.4-1.1C209.6,219.3,208.4,220.5,207.3,221.8z M203.5,225.9c-2.1,1.8-4,3.9-6,5.8c0.1,1.8-0.1,3.8,0.8,5.3
			c1.6,0.1,3.2,0.6,4.7,0.2c2.2-1.7,4.3-3.5,6.3-5.4c1-2.4,1.3-4.9,1.7-7.4C208.6,224.8,206,225.1,203.5,225.9z M187.2,225
			c-0.7,2.3-2.9,3-4.6,4.3c1,1.2,2.2,2.2,3.1,3.5c0.3,1.9-0.7,3.8-0.9,5.7c1.5-0.8,2.7-2.1,4-3.2c1.7,0.1,3.5,0.3,5.2,0.5
			c-0.1-1.7-0.2-3.4-0.4-5.1c1-1.2,2.2-2.3,3.1-3.6c-1.9,0.1-3.7,0.6-5.5,0.8C189.9,226.9,188.6,225.8,187.2,225z"/>
	</g>
	<path id="XMLID_60_" class="st0" d="M429.9,275.3c0.9-4.1,5.4-6.3,9.3-6.3c12.9,0,25.8,0,38.7,0c0,2.6,0,5.3,0,7.9
		c-13.5,0-26.9,0-40.4,0c0,1.2,0,2.3,0,3.5c10.5,0,21.1,0,31.6,0c3,0.1,6.9,0.7,8.2,3.9c0.9,2.6,0.6,5.5,0.4,8.3
		c-0.6,3.9-4.7,5.9-8.3,6.1c-13.2,0.1-26.4,0-39.6,0c0-2.6,0-5.3,0-7.9c13.3,0,26.7,0,40.1,0c0-1.1,0-2.2,0-3.3
		c-10.2,0-20.5,0-30.7,0c-2.9-0.1-6.2-0.8-8.1-3.2C429.1,281.7,430,278.3,429.9,275.3z"/>
	<g id="XMLID_146_">
		<path id="XMLID_147_" class="st0" d="M513.2,269.7c1.4-0.5,2.8-0.7,4.3-0.7c9.8,0,19.6,0,29.5,0.1c3.7,0.2,7.9,2.4,8.7,6.3
			c0.2,5.4,0.1,10.8,0.1,16.2c-0.3,4.3-4.8,6.9-8.8,7c-10.1,0-20.2,0-30.3,0c-4,0-8.7-2.7-9-7c0-5.1,0-10.3,0-15.4
			C507.7,273.1,510.4,270.7,513.2,269.7z M518.6,277.5c-4.4,1.1-3.1,6.2-3.2,9.6c0.6,2.6,3.6,3.6,6,3.6c6.9,0,13.9,0,20.8,0
			c2.3-0.2,5.1-1.2,5.8-3.6c0.1-2.1,0.1-4.1,0-6.2c-0.6-2.5-3.5-3.8-5.8-3.9c-6.2-0.1-12.4,0-18.6,0
			C522,277,520.2,276.8,518.6,277.5z"/>
	</g>
	<path id="XMLID_57_" class="st0" d="M585.5,277c-0.3-4.7,4.6-7.8,8.8-7.9c13.1,0,26.2,0,39.3,0c0,2.6,0,5.2,0,7.9
		C617.6,277,601.6,277,585.5,277z"/>
	<path id="XMLID_56_" class="st0" d="M663.5,276.9c0-2.6,0-5.2,0-7.8c16,0,32,0,48.1,0c0,2.6,0,5.2,0,7.9c-6.8,0-13.6,0-20.3,0
		c0,7.2,0,14.5,0,21.7c-2.6,0-5.1,0-7.7,0c0-7.2,0-14.5,0-21.7C676.9,276.9,670.2,277,663.5,276.9z"/>
	<path id="XMLID_55_" class="st0" d="M585.6,280.2c16,0,32,0,48,0c0,2.4,0,4.7,0,7.1c-13.5,0-26.9,0-40.4,0c0,3.8,0,7.5,0,11.3
		c-2.6,0-5.1,0-7.7,0C585.6,292.6,585.5,286.4,585.6,280.2z"/>
</g>
<g id="XMLID_87_">
	<path id="XMLID_54_" class="st1" d="M294.9,139c12.5-4.1,24.8-8.6,37.3-12.8c-5.8,3.8-12.2,6.7-18.2,10.2
		c-7.4,4.1-14.9,8.1-22.3,12.2C292.2,145.3,293.2,142,294.9,139L294.9,139z"/>
	<path id="XMLID_53_" class="st1" d="M296.8,165.7c12.3-6.7,24.6-13.5,37-20.2c-9.7,8.9-19.5,17.6-29.2,26.5
		C301.3,171,299,168.2,296.8,165.7z"/>
	<path id="XMLID_52_" class="st1" d="M285.8,150.3c-1.9-2.2,1.4-3.3,2.8-4.4C288.1,147.6,288.2,150.4,285.8,150.3z"/>
	<path id="XMLID_51_" class="st1" d="M279.2,152.9c0.7-0.4,1.5-0.7,2.3-1.1c0.6,0.5,1.2,1,1.8,1.5c-4.6,2.4-9.2,5-13.8,7.5
		c0-0.5,0-1.6-0.1-2.2c0.6-0.5,1.3-1,1.9-1.4c0.1-1,0.3-1.9,0.5-2.9c0.9-0.1,1.8-0.2,2.7-0.2c0.6-0.7,1.2-1.4,1.8-2
		C277.3,152.3,278.2,152.6,279.2,152.9z"/>
	<path id="XMLID_50_" class="st1" d="M245.1,156.3c3.9-1.3,7.7-2.7,11.6-4c1.5,1.3,2.9,2.8,4.2,4.3c-2.2,0.9-4.3,1.8-6.6,2.3
		c-3.1-0.4-6.2-1.2-9-2.5L245.1,156.3z"/>
	<path id="XMLID_49_" class="st1" d="M262.9,152.2c1.5,0.4,3.7,0.2,4.6,1.7c-0.1,0.3-0.4,0.9-0.6,1.3
		C265,155.6,264,153.4,262.9,152.2z"/>
	<path id="XMLID_48_" class="st1" d="M188.1,156.2c3.8,0.1,7.7,0.2,11.5,0.8C196.2,160,191.2,159.1,188.1,156.2z"/>
	<path id="XMLID_47_" class="st1" d="M207.5,157.4c1.5,0.1,2.9,0.2,4.4,0.2l0,0.1c1,3.2,0.3,8.1-3.8,8.6c-0.6-1.2-1.3-2.5-2-3.7
		c-1.3-0.4-2.6-0.8-3.8-1.5c1.3-0.4,2.6-0.9,3.8-1.4C206.6,158.9,207.1,158.2,207.5,157.4z"/>
	<path id="XMLID_46_" class="st1" d="M235.9,159.2c1.8,0,3.3-0.9,5-1.4c0.4,0.7,0.8,1.4,1.3,2.1c1.3,0.4,2.7,0.8,4,1.2
		c-1.2,0.5-2.5,0.9-3.7,1.5c-0.9,1-1.4,2.3-2.1,3.5C236.9,166,235.1,162.3,235.9,159.2z"/>
	<path id="XMLID_45_" class="st1" d="M218.2,158.1c5.1,0.4,10.2,0.6,15.3,1c-1,0-2,0-2.9,0c1.8,4.3-2.7,7.7-6.3,8.9
		c-3.3-1.1-6.5-3-7.5-6.6C217.2,160.2,217.7,159.1,218.2,158.1z"/>
	<path id="XMLID_44_" class="st1" d="M259.7,161.2c1.5-0.6,3.1-1.1,4.7-1.2c1.1,0.3,1,1.7,0.4,2.5
		C263,162.4,261.3,161.8,259.7,161.2z"/>
	<path id="XMLID_43_" class="st1" d="M247.2,165c2.2-0.6,4.4-1.2,6.6-1.6c2.3,0.4,4.4,1.3,6.5,2.3c-4.2,2.4-8.6,4.7-12.8,7
		c-1.2-1-2.4-2-3.6-3C244.6,168,245,165.4,247.2,165z"/>
	<path id="XMLID_42_" class="st1" d="M209.6,171.6c1.1-2.1,3.1-3.4,5.1-4.7c1.1,0.9,2.3,1.8,3.4,2.8c-1.2,1.5-2.5,2.9-3.7,4.4
		C212.8,173.2,211.2,172.4,209.6,171.6z"/>
	<path id="XMLID_41_" class="st1" d="M230.1,169.8c1.2-0.9,2.1-2.2,3.4-2.9c1.5,1.3,3.6,2.2,4.7,3.9c-0.1,2-2,3.1-3.7,3.6
		C233,173,231.6,171.3,230.1,169.8z"/>
	<path id="XMLID_40_" class="st1" d="M283.7,172.6c0.8-0.4,1.7-0.8,2.5-1.2c1.5,1.1,2,2.9,2.1,4.7c-1.5-1-2.9-2.2-4.4-3.3
		L283.7,172.6z"/>
	<path id="XMLID_39_" class="st1" d="M218.4,176.2c1-2,2.7-3.9,5-4.2c2.6-0.1,5.2,1.5,6.2,4.1c-1.8,1-3.9,1.5-5,3.4
		C222.6,178.3,220.5,177.2,218.4,176.2z"/>
	<path id="XMLID_38_" class="st1" d="M291.6,173.1c3.1,0.4,6.3,0.9,9.2,2.3c-2.3,2-4.5,4.1-6.8,6.1C292.4,179,292.1,176,291.6,173.1
		z"/>
	<path id="XMLID_37_" class="st1" d="M171.8,183.9c0.8-2,1.3-4.2,2.4-6c1.8,1.7,3.7,3.2,5.3,5c1,2.3,1.2,4.9,1.6,7.3
		c-0.4,1.8-2.2,2.8-3.5,4.1C175.8,190.8,173.8,187.3,171.8,183.9z"/>
	<path id="XMLID_36_" class="st1" d="M183,177.4c4.5,2.1,8.8,4.7,13.4,6.8l-0.1,0.1c-2,2-5.7,2.7-7.6,0.3
		C186.5,182.5,183,180.9,183,177.4z"/>
	<path id="XMLID_35_" class="st1" d="M283.4,177.8c2.5,2.1,5.4,4.1,6.7,7.3c-2.3,2-4.6,4.1-6.8,6.1c-0.5-1.5-1-3-1.4-4.5
		C280.4,183.7,282.6,180.7,283.4,177.8z"/>
	<path id="XMLID_34_" class="st1" d="M270.1,180.1c1.3-0.7,2.7-1.5,4.1-2.1l0.2,0.3c0.7,2.1,1.7,4.1,2.1,6.3c-0.5,2.5-1.4,5-2.2,7.4
		c-1.3,0.8-2.7,1.4-4.2,1.8c-1.2-1.1-2.3-2.4-3.1-3.8c0.5-3.4,1.3-6.7,3-9.7L270.1,180.1z"/>
	<path id="XMLID_33_" class="st1" d="M185,186.5c1.3,0.8,2.5,1.8,3.8,2.7c1.9,0.1,3.8-0.2,5.7-0.2c0,1.6-0.6,3.3-0.3,5
		c1.1,1.3,2.4,2.5,3.3,4c-1.9-0.2-3.8-0.6-5.7-0.9c-1.5,0.8-2.7,1.8-4,2.8c-1-0.6-1.3-1.9-2-2.8c-1-0.6-2-1-3-1.5
		c1-1.5,2.3-2.7,3.4-4.1C185.7,189.7,185.3,188.1,185,186.5z"/>
	<path id="XMLID_32_" class="st1" d="M202.3,187.3c2.2,1.6,6.1,2,6.4,5.2c-0.2,3.3-4.2,3.5-6.5,4.7c-1.5-1.6-3.1-3.1-4.3-4.9
		c-0.1-1.4,0.3-2.7,0.5-4.1C199.7,187.9,201,187.6,202.3,187.3z"/>
	<path id="XMLID_31_" class="st1" d="M259.1,189.4c1.4-1.1,2.9-2.2,4.4-3.2c-0.3,1.8-0.6,3.5-0.9,5.3c1,1.4,2.1,2.7,3.1,4.1
		c-2.2,0.7-3.6,2.4-4.5,4.5c-1.5-1-2.8-2.3-4.4-3c-1.8,0.1-3.5,0.6-5.1,1.2l-0.1,0c-1.4-1.1-3.3-2.1-3.1-4.2
		c0.1-3.2,3.8-3.7,5.9-5.2C256,189.1,257.5,189.3,259.1,189.4z"/>
	<path id="XMLID_30_" class="st1" d="M279.1,191.6c0.2,0.9,0.4,1.9,0.6,2.8c0.7,2.1,2.4,3.6,3.5,5.5c-1.9,0.8-4,2.1-6,1.1
		c-1.5-0.6-3.1-2-3.2-3.6c1.1-0.9,2.5-1.3,3.7-1.9C278.1,194.1,278.6,192.8,279.1,191.6z"/>
	<path id="XMLID_29_" class="st1" d="M175.5,203.6c1.4-1.6,2.7-3.4,4.3-4.7c2,0.4,3.3,1.9,4,3.8c-1.2,1.1-2.5,2.1-3.3,3.5l-0.1,0.1
		c-0.7,0.2-1.3,0.5-2,0.7C177.7,205.7,176.6,204.6,175.5,203.6z"/>
	<path id="XMLID_28_" class="st1" d="M264.9,203.1c0.5-2.1,1.8-4,4.1-4.2c1.4,1.6,2.8,3.2,4.1,4.9c-1.1,0.9-2.2,1.9-3.1,2.9
		C268.2,205.6,266.5,204.4,264.9,203.1z"/>
	<path id="XMLID_27_" class="st1" d="M162.3,213.7c0.8-3.8,3.5-7.5,7.6-8c1.8,0.6,3.4,1.7,5,2.8
		C170.7,210.2,166.4,211.9,162.3,213.7z"/>
	<path id="XMLID_26_" class="st1" d="M271.2,213.3c1.9-3.1,3.6-6.8,7.5-7.5c3.5,0.4,6.2,3.1,7.3,6.3c-0.8,3.6-3.8,5.9-7.1,7.2
		C276.4,217.1,273.8,215.2,271.2,213.3z"/>
	<path id="XMLID_25_" class="st1" d="M236.9,210.8c2.3-1.2,4.1,1.2,5.8,2.3c-1.4,0.2-2.9,0.4-4.3,0.5
		C238,212.6,238.3,211,236.9,210.8z"/>
	<path id="XMLID_24_" class="st1" d="M134.9,224.8c7.4-4.8,14.9-9.6,22.4-14.4l0.2,0.5c0.6,1.5,0.3,3.1,0.3,4.6
		C150,218.5,142.5,221.9,134.9,224.8z"/>
	<path id="XMLID_23_" class="st1" d="M212.7,211.7c1.3-0.5,3-0.7,4.1,0.5c1.2,1.2,0.6,3,0.3,4.4l-0.1,0c-1.1-0.4-2.1-0.9-3.2-1.3
		c0.7-1.2,1.5-2.3,2.1-3.5C214.8,211.5,213.8,211.5,212.7,211.7z"/>
	<path id="XMLID_22_" class="st1" d="M189.3,221.3c4.7-1.9,9.4-3.8,14.1-5.8c0.6,0.3,1.8,1,2.4,1.4c-1.1,2.1-3,3.7-4.7,5.1
		c-2.5,1-5.2,1.3-7.8,1.8C191.7,223.3,190.6,222.2,189.3,221.3z"/>
	<path id="XMLID_21_" class="st1" d="M242.1,216.8c1.2-0.4,2.5-0.8,3.8-1.2c3.5,2.6,7,5.2,10.4,8c-3,0.3-6.1-0.6-9-1.4
		C245.3,220.6,243.5,218.8,242.1,216.8z"/>
	<path id="XMLID_20_" class="st1" d="M207.3,221.8c1.1-1.3,2.3-2.5,3.6-3.6c0.3,0.3,1,0.8,1.4,1.1c0,0.3-0.1,0.9-0.2,1.2
		C210.5,221.1,208.9,221.5,207.3,221.8z"/>
	<path id="XMLID_19_" class="st1" d="M236.2,220.7c-1.2-1.1-0.1-2.1,1.1-2.5c1.2,1,2.4,2.2,3.3,3.5
		C239.1,221.5,237.6,221.1,236.2,220.7z"/>
	<path id="XMLID_18_" class="st1" d="M285,221c0.6-1.2,2.1-1.9,2.9-3c1.8,1.2,3.7,2.3,5.1,3.9c-0.1,2-2,3.5-4,3.7
		C287.6,224.1,286.2,222.7,285,221z"/>
	<path id="XMLID_17_" class="st1" d="M203.5,225.9c2.5-0.8,5.1-1.1,7.7-1.5c-0.5,2.5-0.8,5.1-1.7,7.4c-2,1.9-4.2,3.7-6.3,5.4
		c-1.5,0.4-3.2,0-4.7-0.2c-0.9-1.5-0.7-3.6-0.8-5.3C199.5,229.7,201.4,227.6,203.5,225.9z"/>
	<path id="XMLID_16_" class="st1" d="M236.7,224.3c2.5,0.4,5.1,0.8,7.6,1.4c2,1.4,3.5,3.3,5.3,4.9c2,1.6,0.4,4.4,0,6.5
		c-1.5,0.1-3,0.2-4.5,0.3c-2.3-1.8-4.7-3.5-6.7-5.6C237.8,229.3,237.3,226.8,236.7,224.3z"/>
	<path id="XMLID_15_" class="st1" d="M187.2,225c1.4,0.9,2.7,1.9,4.1,2.8c1.8-0.2,3.6-0.7,5.5-0.8c-0.9,1.3-2.1,2.4-3.1,3.6
		c0.2,1.7,0.3,3.4,0.4,5.1c-1.7-0.2-3.5-0.4-5.2-0.5c-1.3,1.1-2.5,2.4-4,3.2c0.1-1.9,1.1-3.8,0.9-5.7c-0.9-1.3-2.1-2.3-3.1-3.5
		C184.3,228,186.5,227.3,187.2,225z"/>
	<path id="XMLID_14_" class="st1" d="M296.7,225c1.9,1,3.5,3.2,5.8,2.6c5,7.1,10,14.2,14.9,21.4c-8.4-6.5-16.9-13-25.3-19.6
		C294,228.3,295.7,226.9,296.7,225z"/>
	<path id="XMLID_13_" class="st1" d="M259.6,226.1c1.8,1.4,3.5,2.9,5.4,4.2c-0.7,0.9-1.4,1.7-2,2.7c-0.3,1.5,0.3,3,0.4,4.5
		c-0.9-0.8-1.9-1.5-2.8-2.3c-2.2,0.1-4.4,0.4-6.6,0.6c0.2-1.8,0.6-3.6,0.8-5.3c-0.5-1.3-1.6-2.2-2.4-3.2
		C254.8,227.8,257.5,228.2,259.6,226.1z"/>
	<path id="XMLID_12_" class="st1" d="M174,233c1.2-1.1,2.9-1.9,4.5-2.1c1.3,1,2.2,2.4,3.1,3.7c-0.2,1.5-0.5,3-0.9,4.4
		c-1.3,0.6-2.6,0.5-3.8-0.3c-0.1,0.2-0.3,0.6-0.4,0.8l-0.1,0.2c-1.5,0-2.9,0-4.4,0C172.6,237.5,173,235.2,174,233z"/>
	<path id="XMLID_11_" class="st1" d="M231.4,231.2c1.3,1.4,3.3,2.6,3.5,4.7c0.4,2,1.1,3.9,1.1,6c-0.8,1.3-1.9,2.3-3,3.3
		c-1.5-0.6-2.9-1.1-4.4-1.7C229.6,239.5,230.4,235.3,231.4,231.2z"/>
	<path id="XMLID_10_" class="st1" d="M147.8,238.6c5.2-2.5,10.6-4.4,15.9-6.7c2.7,1.7,2.4,5.3,3.4,8.1c-6.7,0.1-13.5,0.3-20.2,0.4
		C147.1,239.9,147.5,239,147.8,238.6z"/>
	<path id="XMLID_9_" class="st1" d="M268.2,232.7c2.8,2.2,5.5,4.3,8.4,6.4c0.1,2.7-1.2,5.2-2.2,7.7c-2.2-1.2-4.1-3-5.7-4.9
		C268,238.9,266,235.5,268.2,232.7z"/>
	<path id="XMLID_8_" class="st1" d="M204.1,240.8c1.5-0.9,2.9-2.1,4.4-3.1c-0.2,1.8-0.8,3.7-0.8,5.5c0.8,1.1,1.8,2.1,2.7,3.1
		c-1.2,4.4-1.5,9.2-3.4,13.4c-2.6-4.6-5.1-9.3-7.6-13.9c0-1.8,0-3.5,0-5.3C200.9,240.6,202.5,240.9,204.1,240.8z"/>
	<path id="XMLID_7_" class="st1" d="M239.6,238.1c1.6,1.3,3.2,2.5,4.9,3.7c-2,2.3-4.2,4.5-6.2,6.7c-0.2-0.4-0.6-1.3-0.8-1.8
		c0.9-1.2,1.9-2.2,2.7-3.4C240.4,241.5,239.8,239.8,239.6,238.1z"/>
	<path id="XMLID_6_" class="st1" d="M253.6,239.5c2-0.2,4.5-1.3,6,0.5c2.1,2.1,5.3,3.6,5.5,6.9c-4.2-1.8-8.3-3.7-12.5-5.5
		C252.8,241,253.3,240,253.6,239.5z"/>
	<path id="XMLID_5_" class="st1" d="M277.8,250.7c0.2-1.3-0.1-3.4,1.4-3.9c0.4,1.3,0.9,2.5,0.8,3.9
		C279.5,250.6,278.4,250.6,277.8,250.7z"/>
	<path id="XMLID_4_" class="st1" d="M288.3,248.2c0.2,0.1,0.5,0.2,0.7,0.2l-0.1,0.3c-0.5,1.3-0.9,2.6-1.5,3.9c-0.9,1.1-2,0-2.4-0.9
		C286.1,250.5,287.1,249.3,288.3,248.2z"/>
	<path id="XMLID_3_" class="st1" d="M289.5,257.9c0.9-2.3,3.3-2.9,5.5-3.1c-1.1,1.4-2.2,2.7-3.3,4.1
		C291,258.6,290.2,258.3,289.5,257.9z"/>
	<path id="XMLID_2_" class="st1" d="M224.4,263c0.2-2.3,0.8-4.5,1.3-6.8c0.1,0.5,0.2,1.4,0.3,1.9c0.7,0.4,1.5,0.9,2.2,1.3
		C226.9,260.6,226,262.2,224.4,263z"/>
	<path id="XMLID_1_" class="st1" d="M299.2,256.7c2,1.6,4.1,3.1,6.1,4.7c-2.9,0.3-5.5-0.9-8.2-1.8
		C297.5,258.5,298.4,257.6,299.2,256.7z"/>
</g>
<g id="XMLID_139_">
</g>
<g id="XMLID_140_">
</g>
<g id="XMLID_141_">
</g>
<g id="XMLID_143_">
</g>
<g id="XMLID_144_">
</g>
<g id="XMLID_145_">
</g>
</svg>
