<?xml version="1.0" encoding="utf-8"?>
<!-- Generator: Adobe Illustrator 19.0.0, SVG Export Plug-In . SVG Version: 6.00 Build 0)  -->
<svg version="1.1" id="Layer_1" xmlns="http://www.w3.org/2000/svg" xmlns:xlink="http://www.w3.org/1999/xlink" x="0px" y="0px"
	 viewBox="443 198 918 410" style="enable-background:new 443 198 918 410;" xml:space="preserve">
<style type="text/css">
	.st0{fill:#2A8FF5;}
	.st1{fill:#1DEBCB;}
	.st2{fill:#19C0A5;}
</style>
<g>
	<path class="st0" d="M948.4,213.5c9-4.7,20-5.6,29.6-2.3c9.7,3.1,17.9,10.3,22.4,19.5c5.2,10.4,5.3,23.3,0.1,33.8
		c-4.8,10-14.1,17.6-24.8,20.4c-15.7,4.4-33.5-2.7-42.2-16.4c-75.7,41.4-151.5,82.6-227.2,124.1c2.5,3.6,2.9,8.3,0.9,12.2
		c51,39.5,102.2,78.8,153.3,118.3c6.3-6.8,15-11.4,24.2-12.4c9.6-1.1,19.5,1.6,27.2,7.4c8.1,6,13.6,15.2,15.1,25.2
		c1.5,10.1-1.2,20.7-7.4,28.8c-6.3,8.4-16.2,14-26.7,15c-10.1,1.1-20.5-2.1-28.3-8.6c-8.1-6.6-13.3-16.8-13.9-27.3
		c-0.6-8.6,2-17.3,6.8-24.4c-51.1-39.4-102.3-78.8-153.4-118.2c-2.9,1.8-6.3,2.6-9.7,2.1c-7.9,35.5-16.1,70.9-24,106.4
		c9.5,3.1,17.8,10,22.4,18.9c4.8,9.2,5.6,20.4,2.2,30.2c-3.1,9.2-10,17.1-18.7,21.6c-9,4.7-19.8,5.5-29.4,2.4
		c-9.7-3.1-18-10.2-22.5-19.3c-4.8-9.5-5.4-20.9-1.6-30.8c4-10.8,13.2-19.5,24.1-22.9c6.1-2,12.6-2.2,18.9-1.3
		c8.1-35.8,16.1-71.6,24.2-107.4c-0.9-0.9-1.8-1.9-2.7-2.7c-48.4,20.1-96.9,39.9-145.4,59.8c2.2,7.9,2.2,16.5-0.7,24.3
		c-3.7,10.5-12.3,19.2-22.8,23c-9.6,3.6-20.6,3.1-29.8-1.3c-9-4.2-16.2-12.1-19.6-21.5c-3.6-9.7-3-20.8,1.6-30.1
		c4.3-8.8,12-15.8,21.2-19.1c11.1-4.2,24-2.8,33.9,3.6c6.3,4,11.3,9.9,14.5,16.7c48.5-20,97-39.8,145.5-59.8c0-1.9,0.2-3.8,0.5-5.6
		c-37.4-19.6-74.9-39-112.3-58.4c-6.3,8-15.7,13.4-25.9,14.6c-11,1.4-22.6-2.4-30.7-10c-7.3-6.8-11.8-16.5-12.2-26.5
		c-0.5-10.3,3.4-20.8,10.6-28.2c7-7.4,17-11.7,27.1-11.8c10.5-0.2,21,4.1,28.2,11.7c11.9,11.9,14.2,31.9,5.5,46.3
		c37.4,19.4,74.7,38.9,112.1,58.3c3.7-3.6,9.1-4.2,13.9-2.4c76.3-41.5,152.4-83.2,228.6-124.8c-3.9-8.4-4.8-18.2-2.2-27.1
		C932,226.9,939.1,218.2,948.4,213.5z"/>
	<g>
		<path class="st0" d="M1072.2,326.2c44.3,0,88.5,0.1,132.8,0.3c8.4,0,16.7,3.9,22.2,10.3c6.3,7.1,8.4,16.9,8.8,26.2
			c0.2,6.7,0.1,13.3,0.1,20c0,5.3-1.9,10.6-5.8,14.3c-3,2.9-6.9,4.5-10.6,6.1c5,0.8,10.1,2.6,13.2,6.9c2.9,3.9,3.4,9,3.3,13.7
			c-0.2,11.8,1.1,24.2-3.9,35.3c-4.6,11-16.2,18.6-28.1,18.5c-43.9,0.1-87.9,0-131.8,0c0-31.5,0-62.9,0-94.4
			c45.6,0,91.1-0.1,136.7,0c0.1-5.7,0-11.5,0-17.2c-45.6,0-91.2,0.1-136.8,0C1072.3,352.9,1072.2,339.6,1072.2,326.2z M1098.3,437.7
			c36.9,0,73.8,0,110.7,0c0-6.1,0-12.2,0-18.2c-36.9,0-73.7,0.1-110.6,0C1098.2,425.5,1098.3,431.6,1098.3,437.7z"/>
	</g>
	<path class="st0" d="M951,504.9c0.3-5.9,6.7-9.2,12-9.1c16.6-0.1,33.3,0.1,49.9,0c0,3.4,0,6.7,0,10.1c-17.4,0-34.7,0-52.1,0
		c0,1.5,0,3-0.1,4.5c13.7,0.2,27.5,0,41.2,0.1c4,0.1,9.2,1.1,10.5,5.5c0.8,3.5,0.7,7.3,0.1,10.9c-1.3,5-6.9,7.1-11.5,7.1
		c-16.7,0-33.4,0-50,0c0-3.4,0-6.8,0-10.1c17.2,0,34.5,0,51.7,0c0-1.5,0-2.9-0.1-4.3c-12.9,0.1-25.8,0-38.7,0
		c-3.8,0-8.1-0.6-10.9-3.5C950.3,513.1,951,508.6,951,504.9z"/>
	<g>
		<path class="st0" d="M1060.1,496.2c13.2-0.9,26.6-0.1,39.8-0.3c5.4-0.3,12.1,2.3,13.3,8.1c0.3,6.6,0.1,13.3,0.1,19.9
			c0.3,6-6,9.9-11.4,10c-12.6,0.1-25.3,0-37.9,0c-4.4,0.1-9.1-1.7-11.6-5.5c-1.4-2.2-1-5-1.1-7.5c0.1-5.4-0.1-10.7,0.1-16.1
			C1051.6,500.3,1056,497.1,1060.1,496.2z M1065.4,506.6c-5.3,1.3-4.3,7.3-4.2,11.5c-0.1,3.6,4,5.3,7.1,5.5c8.9,0.1,17.8,0,26.7,0
			c3.1,0,6.9-1.1,8.3-4.1c0.4-3,0.3-6,0.1-9c-1.3-3.3-5.1-4.6-8.4-4.5c-7.7-0.1-15.3,0-22.9,0
			C1069.8,505.9,1067.5,505.8,1065.4,506.6z"/>
	</g>
	<path class="st0" d="M1151.6,505.9c0-6.3,6.5-10.3,12.3-10.1c16.6,0,33.2,0.1,49.8,0c0,3.4,0,6.7,0,10.1
		C1193,505.9,1172.3,506,1151.6,505.9z"/>
	<path class="st0" d="M1252.4,505.9c0-3.4,0-6.8,0.1-10.1c20.6,0.1,41.2,0.1,61.9,0.1c0,3.4,0,6.7,0,10.1c-8.8,0-17.5,0-26.3,0
		c0,9.4,0,18.7,0,28.1c-3.3,0-6.6,0-9.8,0c0-9.3,0-18.7,0-28.1C1269.6,505.9,1261,506,1252.4,505.9z"/>
	<path class="st0" d="M1151.8,510.2c20.7,0,41.3,0,62,0c0,3,0,6,0,9c-17.4,0.1-34.8-0.1-52.2,0.1c0.1,4.9,0,9.7,0.1,14.6
		c-3.3,0-6.6,0-9.9,0C1151.8,526.1,1151.8,518.2,1151.8,510.2z"/>
</g>
<g>
	<path class="st1" d="M825,311.6c-2.7,2.3-6.1,3.5-9.1,5.3c-8.2,4.6-16.5,9-24.7,13.6c-0.7-2.2-1.4-4.4-2.1-6.5
		C801.2,320,813.1,315.7,825,311.6z"/>
	<path class="st1" d="M937.8,323.5c10.3-0.3,20.5,0,30.8-0.1c7.2,13.4,14.6,26.6,21.6,40.1c-12.3,0.1-24.6-0.1-36.9,0.1
		c-3.3,6.3-7,12.4-10.4,18.6c18.8,0.3,37.7-0.1,56.5,0.2c16.3,31,32.7,61.9,49.1,92.8c-10.1,0-20.2,0-30.3,0
		c-11.7-19.5-23.4-39-35.1-58.4c-20.1,0-40.3,0-60.4,0c-11.5,19.5-22.8,39.1-34.5,58.5c-10-0.2-20,0.1-30-0.2
		C884.7,424.5,911.4,374.1,937.8,323.5z"/>
	<path class="st1" d="M1279.3,326.2c10.1,0,20.2,0,30.2,0c0,16.6,0,33.2,0,49.8c-10.1-8.1-20.1-16.3-30.2-24.4
		C1279.3,343.1,1279.3,334.6,1279.3,326.2z"/>
	<g>
		<path class="st1" d="M758,334.8c6.4-2.1,12.6-4.5,19-6.6c-2.6,3.5-3.7,7.8-3.8,12.1c-1.5,0.8-3,1.7-4.5,2.5c0-2.3,0-4.6,0-6.9
			c-1.9,1.6-3.6,3.4-4.9,5.5c1.1,0.7,2.2,1.4,3.3,2.2c-1.7,0.9-3.3,1.8-5,2.7c-0.7-0.7-1.5-1.3-2.2-2c-2.3,1.3-4.7,1.1-6.9-0.1
			c-0.8,1-1.5,2-2.3,3.1c-1.2,0-2.4-0.1-3.6-0.1c-0.3,1.3-0.5,2.7-0.8,4c-1,0.6-2,1.3-3,2c0.3,0.9,0.6,1.9,0.9,2.9
			c-1.5,0.8-3,1.6-4.6,2.4c-0.4-1.2-0.8-2.3-1.2-3.5c-2.6,0.1-5.3,0.6-7.8,1.3c2.5,0.9,4.8,2,7.2,3.2c-1.8,1-3.6,2-5.3,3l-0.3-0.1
			c-3-1.5-6.2-3.5-9.7-2.8c-3,0.5-5.9,1.2-8.7,2.4c-1.7,1.4-2.2,3.8-3,5.8c1.6,1.4,3.1,2.7,4.6,4.1c-4.3,2.2-8.5,4.6-12.8,6.9
			c-1.8,1.1-3.9,0.3-5.9,0.4c-3.5,0-6.9,2.3-10.4,1.1c1.9-1.8,4.2-3,6.6-3.8c-0.4-4.4-5.4-6.7-9.4-5.7c-2.5,0.8-4,3.2-5.8,5.1
			c-1.5-0.8-3-1.5-4.4-2.3c1.7-1.9,3.4-3.7,5-5.6c-1.7-1.3-3.1-3.4-5.2-3.7c-2.7,1.5-4.9,3.6-7.2,5.4c-12.6-6.9-25.7-13.1-38.3-20.1
			c3.6,0.4,7.3,0.2,10.8,0.9c2.8,1.9,6,3.7,9.5,3.7c2.5,0,4.7-1.5,6.8-2.7c3.2,0.1,6.4,0.2,9.6,0.6c-1.5,3-4.7,3.9-7.6,4.8
			c1.9,0.7,3.8,1.5,5.6,2.2c0.9,1.6,1.8,3.3,2.8,4.8c5.3-0.7,6.7-7.1,4.7-11.4c2.7,0.1,5.3,0.2,8,0.4c-0.7,2-2.3,4.2-0.9,6.3
			c1.3,3.9,5.5,5.2,8.9,6.8c3.2-1.6,7-3,8.5-6.6c1-1.6,0.3-3.5,0.2-5.2c0.6,0,1.7-0.1,2.3-0.1c0.8,0.1,2.5,0.2,3.4,0.2
			c0.4,2.1,0.6,4.3,1.5,6.3c0.9,1.9,3.1,2.3,4.9,3c1.4-3.8,4.7-5.9,8.4-6.9c-2.6-0.8-5.6-1.2-7.3-3.6l0.1-0.6
			c1.6-0.9,3.4-1.4,5.2-1.9c3.3,2.1,7.2,3.1,11,3.5c3.5,0,6.6-1.8,9.8-3c-1.8-2-3.5-3.9-5.3-5.9c5.1-1.8,10.3-3.5,15.4-5.4
			c0.9,1.2,1.9,2.4,2.8,3.6c0.5-0.4,1.4-1.2,1.8-1.6c-0.2-1.1-0.4-2.2-0.6-3.3c2.2-0.7,4.4-1.5,6.6-2.3c0.7,1.2-0.4,4.2,1.5,4.1
			C759.1,340.6,757.4,336.5,758,334.8z M735,345c1.8,2,3.6,4.9,6.8,3.9c0-0.7-0.1-2.1-0.1-2.8C739.5,345.4,737.3,345,735,345z
			 M693.1,367.3c1.9,2.3,3.5,4.9,6,6.6c2.9,0.1,4.8-2.4,5.6-4.9c-2.1-1.9-4.4-3.7-6.7-5.3C696.3,364.9,694.7,366.1,693.1,367.3z"/>
	</g>
	<path class="st1" d="M785.3,359.3c8.4-4.6,16.8-9.2,25.2-13.8c0.9,1.2,1.9,2.3,2.9,3.5c-1,0.9-2,1.8-2.9,2.6
		c-1.4-0.6-2.8-1.3-4.1-1.9c-0.9,1.6-1.8,3.2-2.6,4.8c-2,0.7-3.9,1.4-5.9,2.1c1.6,0.7,3.1,1.4,4.7,2.1c-1.3,1.1-2.6,2.3-3.9,3.5
		C794.4,360.5,789.9,359.3,785.3,359.3z"/>
	<g>
		<path class="st1" d="M767,369.3c4.2-2.3,8.4-4.6,12.6-6.9c2.3,3.7,5.6,6.7,9.6,8.5c-1.5,1.3-3,2.6-4.4,3.9
			c-3.9-1.9-8.2-2.6-12.4-2.9c0.7,3.8,1.4,7.7,3.4,11.1c-1.8,1.6-3.5,3.2-5.2,4.8c-0.3-4.6-4.5-7.2-7.8-9.6
			c-1.8,0.3-1.7,2.8-2.4,4.1c-2.1,4.5,0.5,9.1,1.3,13.6c-1.3,1.1-2.6,2.2-4,3.2c-0.2-0.9-0.5-2.6-0.7-3.4c-0.9,1.7-1.6,3.6-2.9,5
			c-1.3,0.8-2.8,1.3-4.1,2.1c-1.3,0.8,0.2,1.8,0.7,2.6c1.5,1.8,3.8,3.4,6.3,3.1c1.8-0.4,3.5-1.2,5.3-1.9c3.1,4.6,6.4,9.2,9.6,13.7
			v0.3c0,1.9-0.5,4.2,0.8,5.9c1.4,2,3.8,2.6,5.9,3.5c2.9,4,5.7,8.1,8.5,12.2c-2.8-0.5-5.2-1.9-7.5-3.4c-1.8,2.1-3.7,4.1-5.7,5.9
			c-2-1.5-3.9-3-5.8-4.5c3.1-0.2,6.9-1.5,7.1-5.1c-1.8-2.4-4.5-3.8-6.9-5.4c-1.4,1.4-2.8,2.8-4.3,4.1c1.3,1.5,2.6,2.9,3.7,4.5
			c0,0.4-0.1,1.1-0.1,1.5c-3.6-2.6-7.1-5.4-10.6-8c4-1.6,7.9-4.3,9-8.8c-0.6-3.8-3.3-7.3-7-8.5c-2.8-1.2-5.8,0.6-7.9,2.3
			c-1.7,2.1-3.1,4.6-4.6,6.9c-8.1-6.5-16.6-12.7-24.7-19.2c2.1-0.4,4.1-1.1,6.3-1.1c2.2,0.9,4,2.4,6,3.7c1.4-2.6,3.5-4.8,6.3-5.9
			c-1.4-1.7-3-3.2-4-5.1c-0.1-2.7,0.5-5.2,1-7.8c-2,1.6-3.9,3.5-6.3,4.6c-1.9,0.2-3.8-0.3-5.7-0.5c6.6-3.3,12.9-7.2,19.5-10.4
			c-2.1,4.8-5.9,11.4-1.1,15.9c1,1.8,3.2,1,4.8,0.5c3.6-1,3.8-5.3,4.9-8.3c1.5-3.8-0.8-7.5-2.2-10.9l0.2-0.6
			c3.9-2.6,8.1-4.6,12.2-6.8c1.8,2.1,3.8,4,6,5.7C768.6,374.5,767.9,371.9,767,369.3z M738,410.8c2.3,1.8,4.6,3.6,7,5.2
			c1.4-1.4,2.8-2.8,4.2-4.2c-1.5-2.5-3.4-4.7-5.3-6.8C740.7,405.4,738.6,407.8,738,410.8z"/>
	</g>
	<g>
		<path class="st1" d="M605.5,363.2c9,4.9,18.2,9.5,27.3,14.3c0,4.8,4.5,7.3,7.7,10.1c2.9,2.7,7.2,1.3,9.9-1
			c2.3,1.2,4.6,2.4,6.9,3.6c-1.6,0.4-3.3,0.7-4.9,1.1c-0.3,1.9-0.5,3.8-0.8,5.7c1.9,2.1,3.9,4.2,5.8,6.2
			c-8.4,3.6-16.9,6.8-25.2,10.5c0.7-1.8,2.4-3.8,1-5.8c-0.9-2-4.2-3.9-5.9-1.8c-1.8,1.5-3,3.5-4.3,5.4c1.3,1.4,2.5,2.9,3.8,4.3
			c-1.4,0.6-2.8,1.1-4.2,1.7c-2.8-1.7-6.1-4.9-9.6-2.8c-4.2,1.4-6.1,5.7-7.1,9.6c-1.8,0.7-3.5,1.5-5.3,2.2c-0.1-2.3-0.1-4.6-0.3-6.9
			c9-5.9,18.1-11.6,27.1-17.5c-0.2-0.6-0.6-1.8-0.9-2.5c1.4-2.3,4.6-4.1,3.9-7.2c-0.6-3.3-0.7-7.3-3.4-9.8c-1.7-1.7-3.5-3.3-5.5-4.7
			c-2.2,1.7-2.3,5-3.5,7.4c-0.9-1.5-1.7-3-2.6-4.5c0.8-2.7,1.3-5.5,1.5-8.3c-1.7,0.6-3.4,1.3-5,2.3
			C609.9,371.1,607.5,367.2,605.5,363.2z M635.1,388.6c0.4,2.1,0.9,4.3,1.1,6.5c-0.4,2.5-3.8,3.7-3.8,6.2c2.8,1,4.7,3,5.9,5.6
			c1.7-1.1,3.4-2.4,5.1-3.5c2.9-0.3,5.8,0.7,8.8,0.8c-1.5-1.9-3.3-3.7-4.7-5.7c-0.2-2.1,0.2-4.3,0.4-6.4c-2.5,0.1-4.9,0.5-7.4,0.2
			C638.6,391.2,636.9,389.8,635.1,388.6z"/>
	</g>
	<path class="st1" d="M1279.3,389.8c0-6.9,0-13.8,0-20.6c10,8.1,20.1,16.3,30.2,24.4c0.1,6.9,0,13.8,0,20.7
		C1299.4,406.1,1289.3,398,1279.3,389.8z"/>
	<path class="st1" d="M720.5,394.6c1.5-0.8,3-1.5,4.5-2.2c-0.1,2.1,0,4.2-0.5,6.2c-1.1,1.9-2.6,3.5-3.6,5.4
		c-1.2-0.8-2.3-1.7-3.4-2.6c1.3-2,2.3-4.2,2.9-6.5L720.5,394.6z"/>
	<path class="st1" d="M1279.3,407.6c10.2,7.9,20,16.2,30.1,24.2c0.1,15.4,0,30.7,0.1,46.1c-10.1,0-20.2,0-30.2,0
		C1279.3,454.5,1279.3,431,1279.3,407.6z"/>
	<g>
		<path class="st1" d="M699.6,427.1c0.6-2.2,0.6-4.8,2.4-6.5c0.3,0.1,0.9,0.3,1.2,0.4c0.2,1.1,0.4,2.2,0.7,3.2
			c1.7,1.2,3.7-0.7,5.5-0.9c1.4,1.1,2.8,2.1,4.3,3.2l-0.5,0.2c-1.7,0.5-3.3,1.2-5,1.8c2.4,2.4,4.6,5.1,7.4,6.9
			c3.8,1.6,7.9,2.1,12,1.9c1.3,1,2.6,2,3.9,3c-3.1,2.3-6.9,1.7-10.5,1c1.2,1.3,2.6,2.6,3.6,4.1c0.4,2.6-0.3,5.1-0.6,7.7
			c2.9-0.3,5.7-0.9,8.6-0.6c1.6,0.9,3,2.2,4.4,3.4c-1.1-3.6-1-7.3,1.5-10.2c1.2,0.9,2.5,1.9,3.7,2.9c-1.7,4-0.5,8.5,0.9,12.4
			c2,2.8,4.9,4.8,7.5,7.1c1.1-3.4,2.5-6.6,4.2-9.8c4.6,3.6,9.2,7.3,13.9,10.7c-1.9,1.4-3.5,3.1-5,4.9c1.3,0.6,2.6,2,4,0.9
			c0.8-1.6,1.4-3.3,1.9-5.1c4.4,3.3,8.7,6.7,13.1,10.1c-1.2,1.3-2.4,2.6-3.6,3.9c3.8,1.1,7.6,3.2,11.7,2.5c3,2.4,6.8,4.1,8.5,7.8
			c-8.7-3.3-17.1-7.5-25.7-11.1c1.4-1.8,2.7-3.5,4.1-5.3c-2.1,0.1-4.2,0.3-6.3,0.8c-0.1,1.2-0.1,2.3-0.1,3.5
			c-10.7-4.8-21.4-9.5-32.1-14.3c-0.4-4.3-4.2-6.7-7.2-9.3c-2.3-2.3-5.7-1-8.5-0.9c-0.2,0.7-0.5,2.2-0.7,2.9
			c-3.1-1.3-7.4-4.6-9.7-0.4c-3-0.9-5.5-2.8-7.8-4.8c0.5,2.3,1.2,4.6,1.3,6.9c-1,2.1-2.7,3.7-4.1,5.4c0.6,0.6,1.3,1.2,1.9,1.9
			c-6.1,6.2-11.7,13-18.1,18.9c1.3-8.4,3.7-16.6,5.3-25c1.9,0.8,3.8,1.6,5.6,2.4c1.5-1.5,3.3-2.8,4.3-4.7c-0.5-5.1-1.2-11-6.2-13.8
			C696.5,440.4,698.3,433.8,699.6,427.1z M700.7,433.2c2.1,1.5,4.9,1.4,7.3,1.7c-1.6-1.7-3.2-3.5-5.1-4.8
			C701.2,429.8,699.5,431.7,700.7,433.2z M701.9,437.9c0.4,2.6,0.9,5.2,1.6,7.8c0.9,3.9,4.8,5.8,7.6,8.3c2.1,2.1,5.2,1,7.9,0.9
			c0.6-2.3,1.1-4.6,1.5-6.9c-2.6-2.9-5.1-5.9-8.2-8.2C708.9,438.6,705.3,438.4,701.9,437.9z M756.2,473.1c3.3-1.5,1.3-5,0.5-7.4
			C755.2,467.9,753.8,471,756.2,473.1z"/>
	</g>
	<g>
		<path class="st1" d="M660.5,426.1c3.6-1.4,7.1-2.8,10.6-4.4c1.2,0.2,2.5,0.4,3.8,0.4c-0.9,1.5-1.9,3-2.9,4.4
			c1.6,0.6,3.1,1.2,4.7,1.8c-2.8,12.4-5.5,24.9-8.4,37.3c-1-1.2-2.9-2-3.3-3.6c0.1-2.5,0.6-4.9,1-7.4c-2,1.5-3.9,3-6.1,4.3
			c-2.1,0.3-4.2,0.2-6.3,0.2c-0.1,2-0.2,3.9-0.3,5.9c-1.4-2.5-2.8-5-4.1-7.5c-8.2,0.1-16.3,0.4-24.4,0.5c1.8-0.2,3.5-0.5,5.3-0.8
			c0.4-2.4,1.8-5,0.2-7.2c-1.2-1.7-3-4.5-5.4-3c-5.4,0.9-5.3,7.2-6.7,11.3c-2,0-3.9,0.1-5.9,0.1c-0.5-3.8-1.5-7.5-3.6-10.8
			c10.7-4.2,21.3-8.7,32-13.1c1.5,1.1,2.9,2.4,4.6,3.2c3.5,0,7-0.8,10.3-2c2.9-1.6,4.8-4.4,7.1-6.7C662,427.9,661.2,427,660.5,426.1
			z M663.9,435c2.3-0.3,4.6-0.9,6.8-1.5c-0.1-1.2,0.1-2.5-1.1-3.3C666.9,430.1,665.5,433.2,663.9,435z M659,439.9
			c-2.8,2.1-5.3,4.8-7.6,7.5c-0.6,2.4,0.3,4.9,0.7,7.4c2.6,0,5.7,1.3,7.9-0.7c2.4-1.9,4.8-3.9,7-6.1c1.6-3.1,1.8-6.7,2.4-10.1
			C665.9,438.4,662.3,438.6,659,439.9z M632,444.2c0.9,1.1,1.8,2.1,2.6,3.3c2.7,2.7,0.3,6.5,0.3,9.7c1.9-1.5,3.8-3.1,5.6-4.8
			c2.3,0.2,4.5,0.4,6.8,0.6c-0.1-2.3-0.5-4.6-0.1-6.9c1.2-1.8,2.7-3.3,4.1-4.9c-2.4,0.3-4.8,0.8-7.2,0.9c-2.2-0.6-3.9-2.3-5.8-3.5
			C636.7,441.1,634.5,443,632,444.2z"/>
	</g>
	<path class="st1" d="M587.6,427.9c1.7-1.1,3.4-2.2,5.1-3.3c0.4,1.6,0.8,3.1,1.2,4.7c-1.6,0.7-3.2,1.3-4.8,2
		C588.6,430.1,588.1,429,587.6,427.9z"/>
	<path class="st1" d="M788.6,452.5c-0.4-2.5-0.5-5.1,0.2-7.5c3.2,4.5,6.3,9.1,9.6,13.6c-1.6,0.5-3.2,1-4.8,1.6
		c-2.7-2.1-5.4-4.1-8.1-6.2C786.5,453.4,787.5,452.9,788.6,452.5z"/>
	<path class="st1" d="M588.1,456c3.7-1.8,7.5-3.1,11.3-4.7c0.7,2.4,1.3,4.7,1.9,7.1c-5.1,0.1-10.2,0.3-15.3,0.2
		C586.7,457.7,587,456.5,588.1,456z"/>
	<path class="st1" d="M662.7,473.1c1.2-2,2.8-3.8,4.9-4.8c-1.3,5.2-1.8,10.6-3.9,15.6c-2.7-4.7-5.3-9.5-7.9-14.4
		C658.2,470.5,660.4,471.8,662.7,473.1z"/>
</g>
<g>
	<path class="st2" d="M777.1,328c4.1-1.1,8-2.7,12.1-4c0.7,2.2,1.4,4.4,2.1,6.5c-6,3.3-12,6.5-18,9.8c0.1-4.3,1.2-8.6,3.8-12.1V328z
		"/>
	<path class="st2" d="M754.6,336c1.1-0.4,2.2-0.8,3.4-1.1c-0.5,1.7,1.1,5.7-1.8,5.2C754.2,340.2,755.3,337.1,754.6,336z"/>
	<path class="st2" d="M768.7,336c0,2.3-0.1,4.6,0,6.9c-0.5,0.3-1,0.5-1.5,0.8c-1.1-0.7-2.2-1.5-3.3-2.2
		C765,339.4,766.7,337.6,768.7,336z"/>
	<path class="st2" d="M810.5,345.5c5.5-3.1,11-6.1,16.6-9.1c-4.4,4.3-9.2,8.4-13.7,12.6C812.4,347.9,811.4,346.7,810.5,345.5z"/>
	<path class="st2" d="M744,339.6c1.3-0.5,2.7-0.9,4-1.4c0.2,1.1,0.4,2.2,0.6,3.3c-0.4,0.4-1.3,1.2-1.8,1.6
		C745.9,342,745,340.8,744,339.6z"/>
	<path class="st2" d="M753,344.4c2.3,1.2,4.7,1.4,6.9,0.1c0.7,0.7,1.5,1.3,2.2,2c-6,3.2-11.9,6.5-17.9,9.7c-0.3-1-0.6-1.9-0.9-2.9
		c1-0.7,2-1.3,3-2c0.3-1.3,0.5-2.7,0.8-4c1.2,0,2.4,0.1,3.6,0.1C751.5,346.4,752.2,345.4,753,344.4z"/>
	<path class="st2" d="M713.1,350.4c5.1-1.9,10.3-3.6,15.5-5.4c1.7,2,3.5,3.9,5.3,5.9c-3.1,1.2-6.3,3-9.8,3
		C720.3,353.5,716.4,352.5,713.1,350.4z"/>
	<path class="st2" d="M735,345c2.3,0,4.6,0.4,6.7,1.2c0,0.7,0.1,2.1,0.1,2.8C738.6,349.9,736.8,347,735,345z"/>
	<path class="st2" d="M806.3,349.8c1.4,0.6,2.8,1.2,4.1,1.9c-2.6,2.4-5.3,4.8-7.9,7.2c-1.6-0.7-3.2-1.4-4.7-2.1
		c2-0.7,3.9-1.4,5.9-2.1C804.5,353,805.4,351.4,806.3,349.8z"/>
	<path class="st2" d="M638.5,350.3c5.4,0,10.9,0.4,16.3,1c-2.1,1.2-4.3,2.7-6.8,2.7C644.5,354,641.3,352.2,638.5,350.3z"/>
	<path class="st2" d="M664.3,351.9c1.8,0,3.7,0.1,5.5,0.1l0.1,0.3c2,4.3,0.6,10.7-4.7,11.4c-1.1-1.5-1.9-3.2-2.8-4.8
		c-1.9-0.8-3.7-1.5-5.6-2.2C659.7,355.8,662.9,354.9,664.3,351.9z"/>
	<path class="st2" d="M677.9,352.6c6.3,0.5,12.7,0.7,19,1.3c-0.6,0-1.7,0.1-2.3,0.1c0.1,1.7,0.8,3.6-0.2,5.2c-1.5,3.5-5.3,5-8.5,6.6
		c-3.4-1.6-7.6-2.9-8.9-6.8C675.6,356.9,677.1,354.6,677.9,352.6z"/>
	<path class="st2" d="M700.2,354.1c2.4,0.1,4.5-1.1,6.9-1.4l0.7,0.2c1.7,2.4,4.7,2.9,7.3,3.6c-3.7,1-7.1,3.1-8.4,6.9
		c-1.8-0.7-4-1.2-4.9-3C700.8,358.4,700.6,356.3,700.2,354.1z"/>
	<path class="st2" d="M730.8,356.4c2.5-0.8,5.1-1.2,7.8-1.3c0.4,1.2,0.8,2.3,1.2,3.5l0.1,0.3c-0.6,0.3-1.2,0.5-1.8,0.8
		C735.6,358.4,733.2,357.3,730.8,356.4z"/>
	<path class="st2" d="M722.6,359.6c3.5-0.6,6.7,1.3,9.7,2.8c-5.4,3.5-11.2,6.3-16.8,9.4c-1.6-1.4-3.1-2.8-4.6-4.1
		c0.9-2,1.3-4.3,3-5.8C716.7,360.7,719.6,360.1,722.6,359.6z"/>
	<path class="st2" d="M779.6,362.4c1.9-1.1,3.7-2.3,5.7-3.1c4.6,0,9.1,1.2,13.3,3c-3.1,2.9-6.3,5.7-9.4,8.6
		C785.1,369.1,781.9,366.1,779.6,362.4z"/>
	<path class="st2" d="M666,369.5c2.3-1.9,4.6-4,7.2-5.4c2.1,0.4,3.5,2.4,5.2,3.7c-1.7,1.9-3.3,3.7-5,5.6
		C670.9,372,668.5,370.8,666,369.5z"/>
	<path class="st2" d="M693.1,367.3c1.6-1.2,3.2-2.4,4.8-3.6c2.4,1.6,4.6,3.4,6.7,5.3c-0.8,2.5-2.6,5-5.6,4.9
		C696.6,372.2,695,369.6,693.1,367.3z"/>
	<path class="st2" d="M763,371.3c1.3-0.7,2.7-1.4,4-2c0.8,2.6,1.6,5.2,2.1,7.9c-2.2-1.7-4.2-3.6-6-5.7L763,371.3z"/>
	<path class="st2" d="M683.6,370.6c4-1,9,1.3,9.4,5.7c-2.4,0.9-4.7,2.1-6.6,3.8c-2.8-1.6-5.7-3-8.6-4.5
		C679.6,373.8,681.1,371.4,683.6,370.6z"/>
	<path class="st2" d="M772.3,371.9c4.3,0.3,8.6,1,12.4,2.9c-3,2.8-6,5.5-9,8.2C773.7,379.6,773,375.7,772.3,371.9z"/>
	<path class="st2" d="M612,375c1.6-0.9,3.3-1.7,5-2.3c-0.2,2.8-0.7,5.6-1.5,8.3C614.3,379,613.1,377,612,375z"/>
	<path class="st2" d="M618.1,385.5c1.1-2.4,1.3-5.7,3.5-7.4c2,1.4,3.8,3,5.5,4.7c2.7,2.5,2.8,6.4,3.4,9.8c0.7,3-2.5,4.9-3.9,7.2
		l-0.4,0.4C623.8,395.2,620.8,390.4,618.1,385.5z"/>
	<path class="st2" d="M632.8,377.5c5.9,3,11.7,6.1,17.6,9.1c-2.7,2.3-7,3.7-9.9,1C637.2,384.8,632.8,382.3,632.8,377.5z"/>
	<path class="st2" d="M760.3,382.4c0.7-1.4,0.6-3.8,2.4-4.1c3.3,2.4,7.5,5,7.8,9.6c-3,2.7-6,5.3-8.9,8.1
		C760.7,391.5,758.2,386.9,760.3,382.4z"/>
	<path class="st2" d="M744.5,381.7c1.6-1.4,3.7-2.4,5.7-3l0.6,0.2c1.4,3.4,3.7,7.1,2.2,10.9c-1.1,2.9-1.3,7.3-4.9,8.3
		c-1.5,0.5-3.8,1.3-4.8-0.5C738.6,393.2,742.4,386.6,744.5,381.7z"/>
	<path class="st2" d="M730.7,392.6c2.4-1.1,4.3-3,6.3-4.6c-0.4,2.6-1.1,5.2-1,7.8c1,1.9,2.6,3.5,4,5.1c-2.8,1.2-4.9,3.3-6.3,5.9
		c-1.9-1.3-3.8-2.8-6-3.7c-2.1,0-4.2,0.7-6.3,1.1l-0.9,0.2l0.3-0.7c1-1.9,2.5-3.5,3.6-5.4c0.5-2,0.4-4.1,0.5-6.2v-0.2
		C726.9,392.3,728.8,392.9,730.7,392.6z"/>
	<path class="st2" d="M635.1,388.6c1.8,1.2,3.5,2.6,5.4,3.8c2.5,0.3,4.9-0.1,7.4-0.2c-0.2,2.1-0.6,4.2-0.4,6.4
		c1.5,2,3.2,3.7,4.7,5.7c-2.9-0.1-5.8-1-8.8-0.8c-1.7,1.1-3.4,2.4-5.1,3.5c-1.2-2.6-3.2-4.7-5.9-5.6c0-2.6,3.4-3.7,3.8-6.2
		C636,392.9,635.5,390.8,635.1,388.6z"/>
	<path class="st2" d="M657.2,390.2c3.1,2.1,9.1,2.8,8.6,7.7c-1.2,3.6-5.6,3.8-8.5,5.3c-2-2.1-3.9-4.1-5.8-6.2
		c0.3-1.9,0.6-3.8,0.8-5.7C653.9,390.9,655.6,390.6,657.2,390.2z"/>
	<path class="st2" d="M717.5,401.3c-0.5-2.6,0.1-5.5,2.9-6.5C719.8,397.1,718.8,399.3,717.5,401.3z"/>
	<path class="st2" d="M753.9,400.8c1.3-1.5,2-3.4,2.9-5c0.2,0.9,0.5,2.6,0.7,3.4c0.6,3,3,5.1,4.6,7.6c-1.7,0.7-3.4,1.5-5.3,1.9
		c-2.5,0.2-4.8-1.3-6.3-3.1c-0.5-0.8-2-1.8-0.7-2.6C751.1,402.1,752.6,401.5,753.9,400.8z"/>
	<path class="st2" d="M627.2,406.1c1.8-2.1,5-0.2,5.9,1.8c1.5,1.9-0.3,3.9-1,5.8c-1.8,0.7-3.7,1.4-5.5,2.1c-1.3-1.4-2.5-2.9-3.8-4.3
		C624.2,409.6,625.4,407.6,627.2,406.1z"/>
	<path class="st2" d="M738,410.8c0.7-3,2.7-5.4,5.8-5.8c2,2.1,3.9,4.3,5.3,6.8c-1.4,1.4-2.8,2.8-4.2,4.2
		C742.6,414.3,740.3,412.6,738,410.8z"/>
	<path class="st2" d="M612.9,414.7c3.5-2.1,6.8,1.1,9.6,2.8c-5.5,2.3-11.1,4.6-16.6,6.8C606.8,420.4,608.7,416.2,612.9,414.7z"/>
	<path class="st2" d="M750.7,416.7c2.2-1.7,5.1-3.5,7.9-2.3c3.7,1.2,6.4,4.7,7,8.5c-1.1,4.5-5,7.2-9,8.8c-3.5-2.8-7-5.4-10.5-8.1
		C747.7,421.3,749,418.9,750.7,416.7z"/>
	<path class="st2" d="M592.8,424.6c2.5-1.6,5-3.2,7.5-4.8c0.1,2.3,0.2,4.6,0.3,6.9c-2.2,0.9-4.4,1.8-6.6,2.6
		C593.6,427.7,593.2,426.1,592.8,424.6z"/>
	<path class="st2" d="M702,420.6c2.9-1.1,5.3,1,7.3,2.7c-1.8,0.2-3.8,2.1-5.5,0.9c-0.3-1.1-0.4-2.2-0.7-3.2
		C702.9,421,702.3,420.7,702,420.6z"/>
	<path class="st2" d="M671.1,421.8c1.8-0.5,3.9-0.9,5.3,0.6c1.7,1.6,0.7,4,0.3,6c-1.6-0.6-3.2-1.2-4.7-1.8c1-1.4,2-2.9,2.9-4.4
		C673.5,422.1,672.3,421.9,671.1,421.8z"/>
	<path class="st2" d="M771.7,420.7c2.4,3,4.5,6.2,6.7,9.4c-2.1-0.9-4.6-1.5-5.9-3.5C771.1,424.9,771.6,422.7,771.7,420.7z"/>
	<path class="st2" d="M640.7,434.3c6.6-2.7,13.2-5.4,19.8-8.2c0.8,0.9,1.5,1.8,2.3,2.7c-2.3,2.3-4.3,5.1-7.1,6.7
		c-3.3,1.1-6.8,2-10.3,2C643.6,436.7,642.2,435.4,640.7,434.3z"/>
	<path class="st2" d="M708.1,428.5c1.7-0.6,3.3-1.3,5-1.8c5.2,2.8,9.6,7.1,14.4,10.6c-4.1,0.2-8.2-0.3-12-1.9
		C712.7,433.6,710.5,430.9,708.1,428.5z"/>
	<path class="st2" d="M570.9,438.8c5.5-3.8,11.2-7.2,16.8-10.9c0.5,1.1,1,2.3,1.5,3.4C583,433.7,577,436.4,570.9,438.8z"/>
	<path class="st2" d="M663.9,435c1.6-1.8,3-4.9,5.8-4.8c1.1,0.7,0.9,2.1,1.1,3.3C668.5,434.1,666.2,434.7,663.9,435z"/>
	<path class="st2" d="M700.7,433.2c-1.2-1.5,0.6-3.4,2.3-3.1c1.9,1.3,3.5,3.1,5.1,4.8C705.5,434.6,702.8,434.7,700.7,433.2z"/>
	<path class="st2" d="M763.7,433.8c1.4-1.4,2.9-2.7,4.3-4.1c2.4,1.6,5.1,3,6.9,5.4c-0.2,3.7-4,4.9-7.1,5.1l-0.5,0.1v-0.5
		c0-0.4,0.1-1.1,0.1-1.5C766.3,436.7,765,435.2,763.7,433.8z"/>
	<path class="st2" d="M659,439.9c3.3-1.3,6.9-1.5,10.3-2c-0.6,3.4-0.8,7-2.4,10.1c-2.1,2.3-4.6,4.2-7,6.1c-2.2,1.9-5.3,0.7-7.9,0.7
		c-0.4-2.4-1.3-4.9-0.7-7.4C653.8,444.7,656.2,442,659,439.9z"/>
	<path class="st2" d="M701.9,437.9c3.4,0.5,7,0.7,10.3,1.9c3.1,2.3,5.6,5.3,8.2,8.2c-0.3,2.3-0.8,4.6-1.5,6.9
		c-2.6,0.1-5.7,1.2-7.9-0.9c-2.8-2.4-6.7-4.4-7.6-8.3C702.8,443.1,702.3,440.5,701.9,437.9z"/>
	<path class="st2" d="M632,444.2c2.6-1.3,4.8-3.1,6.2-5.6c1.9,1.2,3.6,2.9,5.8,3.5c2.4-0.2,4.8-0.6,7.2-0.9
		c-1.3,1.7-2.8,3.2-4.1,4.9c-0.3,2.3,0,4.6,0.1,6.9c-2.3-0.2-4.5-0.4-6.8-0.6c-1.8,1.6-3.6,3.3-5.6,4.8c0-3.2,2.4-7-0.3-9.7
		C633.7,446.4,632.8,445.3,632,444.2z"/>
	<path class="st2" d="M773.6,444.7c2-1.8,3.9-3.8,5.7-5.9c2.3,1.6,4.7,3,7.5,3.4c0.6,0.9,1.3,1.8,1.9,2.7c-0.6,2.5-0.6,5-0.2,7.5
		c-1,0.5-2.1,0.9-3.1,1.4C781.5,450.8,777.6,447.7,773.6,444.7z"/>
	<path class="st2" d="M731.4,440.3c2.3,1.8,4.6,3.6,7,5.4c-2.6,2.9-2.6,6.6-1.5,10.2c-1.4-1.2-2.8-2.5-4.4-3.4
		c-2.9-0.3-5.7,0.3-8.6,0.6c0.3-2.5,1-5.1,0.6-7.7c-1-1.5-2.4-2.8-3.6-4.1C724.5,442,728.3,442.6,731.4,440.3z"/>
	<path class="st2" d="M624.9,446.8c2.4-1.5,4.1,1.3,5.4,3c1.5,2.2,0.1,4.9-0.2,7.2c-1.8,0.3-3.5,0.6-5.3,0.8
		c-2.2,0.2-4.4,0.1-6.6,0.2C619.6,453.9,619.5,447.7,624.9,446.8z"/>
	<path class="st2" d="M695.2,447L695.2,447c5,2.8,5.7,8.8,6.3,13.8c-1,1.9-2.8,3.2-4.3,4.7c-1.9-0.8-3.8-1.6-5.6-2.4
		C692.8,457.7,693.9,452.3,695.2,447z"/>
	<path class="st2" d="M599.4,451.3c3.1-1.3,6.3-2.6,9.4-3.9c2,3.3,3,7,3.6,10.8c-3.7,0.1-7.3,0.2-11,0.2
		C600.7,456,600,453.7,599.4,451.3z"/>
	<path class="st2" d="M742.1,448.6c4.2,3.2,8.4,6.4,12.6,9.6c-1.6,3.1-3,6.4-4.2,9.8c-2.5-2.3-5.5-4.2-7.5-7.1
		C741.5,457.1,740.4,452.6,742.1,448.6z"/>
	<path class="st2" d="M659.9,458.8c2.2-1.2,4.1-2.8,6.1-4.3c-0.4,2.4-0.9,4.9-1,7.4c0.3,1.7,2.2,2.4,3.3,3.6
		c-0.2,0.9-0.4,1.8-0.6,2.7c-2.1,1.1-3.7,2.8-4.9,4.8c-2.2-1.3-4.5-2.6-6.9-3.6c-0.9-1.5-1.7-3-2.5-4.6c0.1-2,0.2-3.9,0.3-5.9
		C655.7,459,657.8,459.1,659.9,458.8z"/>
	<path class="st2" d="M705.1,455c2.3,2,4.8,4,7.8,4.8c-2.9,3.2-5.8,6.2-8.7,9.4c-0.6-0.6-1.3-1.3-1.9-1.9c1.4-1.7,3.1-3.3,4.1-5.4
		C706.4,459.5,705.7,457.2,705.1,455z"/>
	<path class="st2" d="M723.3,457.3c2.8-0.1,6.2-1.4,8.5,0.9c3,2.5,6.8,5,7.2,9.3c-5.5-2.3-10.9-4.9-16.4-7.2
		C722.8,459.4,723.1,458,723.3,457.3z"/>
	<path class="st2" d="M793.5,460c1.6-0.5,3.2-1.1,4.8-1.6c2.5,3.8,5.3,7.4,7.7,11.3C801.9,466.4,797.6,463.3,793.5,460z"/>
	<path class="st2" d="M756.2,473.1c-2.4-2.1-1-5.3,0.5-7.4C757.5,468.2,759.5,471.7,756.2,473.1z"/>
	<path class="st2" d="M768.6,468.9c0.2,0.2,0.6,0.6,0.8,0.7c-0.5,1.7-1,3.5-1.9,5.1c-1.4,1.1-2.7-0.3-4-0.9
		C765.1,472,766.7,470.3,768.6,468.9z"/>
	<path class="st2" d="M771.2,478.2c2-0.5,4.2-0.7,6.3-0.8c-1.3,1.8-2.7,3.6-4.1,5.3c-0.8-0.3-1.5-0.7-2.3-1
		C771.1,480.6,771.2,479.4,771.2,478.2z"/>
	<path class="st2" d="M782.5,479.7c2.8,2.1,5.5,4.1,8.1,6.4c-4.1,0.7-7.9-1.4-11.7-2.5C780.1,482.3,781.3,481,782.5,479.7z"/>
</g>
</svg>
