<?xml version="1.0" encoding="utf-8"?>
<!-- Generator: Adobe Illustrator 19.0.0, SVG Export Plug-In . SVG Version: 6.00 Build 0)  -->
<svg version="1.1" id="Layer_1" xmlns="http://www.w3.org/2000/svg" xmlns:xlink="http://www.w3.org/1999/xlink" x="0px" y="0px"
	 viewBox="0 0 1200 1200" style="enable-background:new 0 0 1200 1200;" xml:space="preserve">
<style type="text/css">
	.st0{fill:#2A8FF5;}
	.st1{fill:#1DEBCB;}
	.st2{fill:#19C0A5;}
</style>
<g>
	<path class="st0" d="M654.4,406.5c9-4.7,20-5.6,29.6-2.3c9.7,3.1,17.9,10.3,22.4,19.5c5.2,10.5,5.3,23.3,0.1,33.8
		c-4.8,10-14.1,17.6-24.8,20.4c-15.7,4.4-33.5-2.7-42.2-16.4c-75.7,41.4-151.5,82.6-227.2,124.1c2.5,3.6,2.9,8.3,0.9,12.2
		c51,39.5,102.2,78.8,153.3,118.3c6.3-6.8,15-11.4,24.2-12.4c9.6-1.1,19.5,1.6,27.2,7.4c8.1,6,13.6,15.2,15.1,25.2
		c1.5,10.1-1.2,20.7-7.4,28.8c-6.3,8.4-16.2,14-26.7,15c-10.1,1.1-20.5-2.1-28.3-8.6c-8.1-6.6-13.3-16.8-13.9-27.3
		c-0.6-8.6,2-17.3,6.8-24.4c-51.1-39.4-102.3-78.8-153.4-118.2c-2.9,1.8-6.3,2.6-9.7,2.1c-7.9,35.5-16.1,70.9-24,106.4
		c9.5,3.1,17.8,10,22.4,18.9c4.8,9.2,5.6,20.4,2.2,30.2c-3.1,9.2-10,17.1-18.7,21.6c-9,4.7-19.8,5.6-29.4,2.4
		c-9.7-3.1-18-10.2-22.5-19.3c-4.8-9.5-5.4-20.9-1.6-30.8c4-10.8,13.2-19.5,24.1-22.9c6.1-2,12.6-2.2,18.9-1.3
		c8.1-35.8,16.1-71.6,24.2-107.4c-0.9-0.9-1.8-1.9-2.7-2.7c-48.4,20.1-96.9,39.9-145.4,59.8c2.2,7.9,2.2,16.5-0.7,24.3
		c-3.7,10.5-12.3,19.2-22.8,23c-9.6,3.6-20.6,3.1-29.8-1.3c-9-4.2-16.2-12.1-19.6-21.5c-3.6-9.7-3-20.8,1.6-30.1
		c4.3-8.8,12-15.8,21.2-19.1c11.1-4.2,24-2.8,33.9,3.6c6.3,4,11.3,9.9,14.5,16.7c48.5-20,97-39.8,145.5-59.8c0-1.9,0.2-3.8,0.5-5.6
		c-37.4-19.6-74.9-39-112.3-58.5c-6.3,8-15.7,13.4-25.9,14.6c-11,1.4-22.6-2.4-30.7-10c-7.3-6.8-11.8-16.5-12.2-26.5
		c-0.5-10.3,3.4-20.8,10.6-28.2c7-7.4,17-11.7,27.1-11.9c10.5-0.2,21,4.1,28.2,11.7c11.9,11.9,14.2,31.9,5.5,46.3
		c37.4,19.4,74.7,38.9,112.1,58.3c3.7-3.6,9.1-4.2,13.9-2.4c76.3-41.5,152.4-83.2,228.6-124.8c-3.9-8.4-4.8-18.2-2.2-27.1
		C638,419.9,645.1,411.2,654.4,406.5z"/>
	<g>
		<path class="st0" d="M778.2,519.2c44.3,0,88.5,0.1,132.8,0.3c8.4,0,16.7,3.9,22.2,10.3c6.3,7.1,8.4,16.9,8.8,26.2
			c0.2,6.7,0.1,13.4,0.1,20c0,5.3-1.9,10.6-5.8,14.3c-3,2.9-6.9,4.5-10.6,6.1c5,0.8,10.1,2.6,13.2,6.9c2.9,3.9,3.4,9,3.3,13.7
			c-0.2,11.8,1.1,24.2-3.9,35.4c-4.6,11-16.2,18.6-28.1,18.5c-43.9,0.1-87.9,0-131.8,0c0-31.5,0-62.9,0-94.4
			c45.6,0,91.1-0.1,136.7,0c0.1-5.7,0-11.5,0-17.2c-45.6,0-91.2,0.1-136.8,0C778.3,545.9,778.2,532.6,778.2,519.2z M804.3,630.7
			c36.9,0,73.8,0,110.7,0c0-6.1,0-12.2,0-18.2c-36.9,0-73.7,0.1-110.6,0C804.2,618.5,804.3,624.7,804.3,630.7z"/>
	</g>
	<path class="st0" d="M657,697.9c0.3-5.8,6.7-9.2,12-9.1c16.6-0.1,33.3,0.1,49.9,0c0,3.4,0,6.7,0,10.1c-17.4,0-34.7,0-52.1,0
		c0,1.5,0,3-0.1,4.5c13.7,0.2,27.5,0,41.2,0.1c4,0.1,9.2,1.1,10.5,5.5c0.8,3.5,0.7,7.3,0.1,10.9c-1.3,5-6.9,7.1-11.5,7.1
		c-16.7,0.1-33.4,0-50,0c0-3.4,0-6.8,0-10.1c17.2,0,34.5,0,51.7,0c0-1.5,0-2.9-0.1-4.3c-12.9,0.1-25.8,0-38.7,0
		c-3.8,0-8.1-0.7-10.9-3.5C656.3,706.1,657,701.7,657,697.9z"/>
	<g>
		<path class="st0" d="M766.1,689.2c13.2-0.9,26.6-0.1,39.8-0.3c5.4-0.3,12.1,2.3,13.3,8.1c0.3,6.6,0.1,13.3,0.1,19.9
			c0.3,6-6,9.9-11.4,10c-12.6,0.1-25.3,0-37.9,0c-4.4,0.1-9.1-1.7-11.6-5.5c-1.4-2.2-1-5-1.1-7.4c0.1-5.4-0.1-10.7,0.1-16.1
			C757.6,693.3,762,690.1,766.1,689.2z M771.4,699.6c-5.3,1.3-4.3,7.3-4.2,11.5c-0.1,3.6,4,5.3,7.1,5.5c8.9,0.1,17.8,0,26.7,0
			c3.1,0,6.9-1.1,8.3-4.1c0.4-3,0.3-6,0.1-9c-1.3-3.3-5.1-4.6-8.4-4.5c-7.7-0.1-15.3,0-22.9,0C775.8,698.9,773.5,698.8,771.4,699.6z
			"/>
	</g>
	<path class="st0" d="M857.6,698.9c0-6.3,6.5-10.3,12.3-10.1c16.6,0,33.2,0.1,49.8,0c0,3.4,0,6.7,0,10.1
		C899,698.9,878.3,699,857.6,698.9z"/>
	<path class="st0" d="M958.4,698.9c0-3.4,0-6.8,0.1-10.1c20.6,0.1,41.2,0.2,61.9,0.1c0,3.4,0,6.7,0,10.1c-8.8,0-17.5,0-26.3,0
		c0,9.4,0,18.7,0,28.1c-3.3,0-6.6,0-9.8,0c0-9.3,0-18.7,0-28.1C975.6,698.9,967,699,958.4,698.9z"/>
	<path class="st0" d="M857.8,703.2c20.7,0,41.3,0,62,0c0,3,0,6,0,9c-17.4,0.1-34.8-0.1-52.2,0.1c0.1,4.9,0,9.7,0.1,14.6
		c-3.3,0-6.6,0-9.9,0C857.8,719.1,857.8,711.2,857.8,703.2z"/>
</g>
<g>
	<path class="st1" d="M531,504.6c-2.7,2.3-6.1,3.5-9.1,5.4c-8.2,4.6-16.5,9-24.7,13.6c-0.7-2.2-1.4-4.4-2.1-6.5
		C507.2,513,519.1,508.7,531,504.6z"/>
	<path class="st1" d="M643.8,516.5c10.3-0.3,20.5,0,30.8-0.1c7.2,13.4,14.6,26.7,21.6,40.2c-12.3,0.1-24.6-0.1-36.9,0.1
		c-3.3,6.3-7,12.4-10.4,18.6c18.8,0.3,37.7-0.1,56.5,0.2c16.3,31,32.7,61.9,49.1,92.8c-10.1,0-20.2,0-30.3,0
		c-11.7-19.5-23.4-39-35.1-58.4c-20.1,0-40.3,0-60.4,0c-11.5,19.5-22.8,39.1-34.5,58.5c-10-0.2-20,0.1-30-0.2
		C590.7,617.5,617.4,567.1,643.8,516.5z"/>
	<path class="st1" d="M985.3,519.2c10.1,0,20.2,0,30.2,0c0,16.6,0,33.2,0,49.8c-10.1-8.1-20.1-16.3-30.2-24.4
		C985.3,536.1,985.3,527.7,985.3,519.2z"/>
	<g>
		<path class="st1" d="M464,527.8c6.4-2.1,12.6-4.5,19-6.6c-2.6,3.5-3.7,7.8-3.8,12.1c-1.5,0.8-3,1.7-4.5,2.5c0-2.3,0-4.6,0-6.9
			c-1.9,1.6-3.6,3.4-4.9,5.5c1.1,0.7,2.2,1.4,3.3,2.2c-1.7,0.9-3.3,1.8-5,2.7c-0.7-0.7-1.5-1.3-2.2-2c-2.3,1.3-4.7,1.1-6.9-0.1
			c-0.8,1-1.5,2-2.3,3.1c-1.2,0-2.4-0.1-3.6-0.1c-0.3,1.3-0.5,2.7-0.8,4c-1,0.6-2,1.3-3,2c0.3,1,0.6,1.9,0.9,2.9
			c-1.5,0.8-3,1.6-4.6,2.4c-0.4-1.2-0.8-2.3-1.2-3.5c-2.6,0.1-5.3,0.5-7.8,1.3c2.5,0.9,4.8,2,7.2,3.2c-1.8,1-3.6,2-5.3,3l-0.3-0.1
			c-3-1.5-6.2-3.5-9.7-2.8c-3,0.5-5.9,1.2-8.7,2.4c-1.7,1.5-2.2,3.8-3,5.8c1.6,1.4,3.1,2.7,4.6,4.1c-4.3,2.2-8.5,4.6-12.8,6.9
			c-1.8,1.1-3.9,0.3-5.9,0.4c-3.5,0-6.9,2.3-10.4,1c1.9-1.8,4.2-3,6.6-3.8c-0.4-4.4-5.4-6.7-9.4-5.7c-2.5,0.8-4,3.2-5.8,5.1
			c-1.5-0.8-3-1.5-4.4-2.3c1.7-1.9,3.4-3.7,5-5.6c-1.7-1.3-3.1-3.4-5.2-3.7c-2.7,1.5-4.9,3.6-7.2,5.5c-12.6-6.9-25.7-13.1-38.3-20.1
			c3.6,0.4,7.3,0.2,10.8,0.9c2.8,1.9,6,3.7,9.5,3.7c2.5,0,4.7-1.5,6.8-2.7c3.2,0.1,6.4,0.2,9.6,0.6c-1.5,3-4.7,3.9-7.6,4.8
			c1.9,0.7,3.8,1.4,5.6,2.2c0.9,1.6,1.8,3.3,2.8,4.8c5.3-0.7,6.7-7.1,4.7-11.4c2.7,0.1,5.3,0.1,8,0.4c-0.7,2-2.3,4.2-0.9,6.3
			c1.3,3.9,5.5,5.2,8.9,6.8c3.2-1.6,7-3,8.5-6.6c1-1.6,0.3-3.5,0.2-5.2c0.6,0,1.7-0.1,2.3-0.1c0.8,0.1,2.5,0.2,3.4,0.2
			c0.4,2.1,0.6,4.3,1.5,6.3c0.9,1.9,3.1,2.3,4.9,3c1.4-3.8,4.7-5.9,8.4-6.9c-2.6-0.8-5.6-1.2-7.3-3.6l0.1-0.6
			c1.6-0.9,3.4-1.4,5.2-1.9c3.3,2.1,7.2,3.1,11,3.5c3.5,0,6.6-1.8,9.8-3c-1.8-2-3.5-3.9-5.3-5.9c5.1-1.8,10.3-3.5,15.4-5.3
			c0.9,1.2,1.9,2.4,2.8,3.6c0.5-0.4,1.4-1.2,1.8-1.6c-0.2-1.1-0.4-2.2-0.6-3.3c2.2-0.7,4.4-1.5,6.6-2.3c0.7,1.2-0.4,4.2,1.5,4.1
			C465.1,533.5,463.4,529.5,464,527.8z M441,538c1.8,2,3.6,4.9,6.8,4c0-0.7-0.1-2.1-0.1-2.8C445.5,538.3,443.3,538,441,538z
			 M399.1,560.3c1.9,2.3,3.5,4.9,6,6.6c2.9,0.1,4.8-2.4,5.6-4.9c-2.1-1.9-4.4-3.7-6.7-5.3C402.3,557.9,400.7,559.1,399.1,560.3z"/>
	</g>
	<path class="st1" d="M491.3,552.3c8.4-4.6,16.8-9.2,25.2-13.8c0.9,1.2,1.9,2.3,2.9,3.5c-1,0.9-2,1.8-2.9,2.6
		c-1.4-0.6-2.8-1.3-4.1-1.9c-0.9,1.6-1.8,3.2-2.6,4.8c-2,0.7-3.9,1.4-5.9,2.1c1.6,0.7,3.1,1.4,4.7,2.1c-1.3,1.2-2.6,2.3-3.9,3.5
		C500.4,553.5,495.9,552.3,491.3,552.3z"/>
	<g>
		<path class="st1" d="M473,562.3c4.2-2.3,8.4-4.6,12.6-6.9c2.3,3.7,5.6,6.7,9.6,8.5c-1.5,1.3-3,2.6-4.4,3.9
			c-3.9-1.9-8.2-2.6-12.4-3c0.7,3.8,1.4,7.7,3.4,11.2c-1.8,1.6-3.5,3.2-5.2,4.8c-0.3-4.6-4.5-7.2-7.8-9.6c-1.8,0.3-1.7,2.8-2.4,4.1
			c-2.1,4.5,0.5,9.1,1.3,13.6c-1.3,1.1-2.6,2.2-4,3.2c-0.2-0.8-0.5-2.6-0.7-3.4c-0.9,1.7-1.6,3.6-2.9,5c-1.3,0.8-2.8,1.3-4.1,2.1
			c-1.3,0.8,0.2,1.8,0.7,2.6c1.5,1.8,3.8,3.4,6.3,3.2c1.8-0.4,3.5-1.2,5.3-1.9c3.1,4.6,6.4,9.2,9.6,13.7l0,0.3
			c0,1.9-0.5,4.2,0.8,5.9c1.4,2,3.8,2.6,5.9,3.5c2.9,4,5.7,8.1,8.5,12.2c-2.8-0.5-5.2-1.9-7.5-3.4c-1.8,2.1-3.7,4-5.7,5.9
			c-2-1.5-3.9-3-5.8-4.5c3.1-0.2,6.9-1.5,7.1-5.1c-1.8-2.3-4.5-3.8-6.9-5.4c-1.4,1.4-2.8,2.8-4.3,4.1c1.3,1.5,2.6,2.9,3.7,4.5
			c0,0.4-0.1,1.1-0.1,1.5c-3.6-2.6-7.1-5.4-10.6-8c4-1.6,7.9-4.3,9-8.8c-0.6-3.8-3.3-7.3-7-8.5c-2.8-1.2-5.8,0.6-7.9,2.3
			c-1.7,2.2-3.1,4.6-4.6,6.9c-8.1-6.5-16.6-12.7-24.7-19.2c2.1-0.5,4.1-1.1,6.3-1.1c2.2,0.9,4,2.3,6,3.7c1.4-2.6,3.5-4.8,6.3-6
			c-1.4-1.7-3-3.2-4-5.1c-0.1-2.7,0.5-5.2,1-7.8c-2,1.6-3.9,3.5-6.3,4.6c-1.9,0.2-3.8-0.3-5.7-0.5c6.6-3.3,12.9-7.2,19.5-10.4
			c-2.1,4.8-5.9,11.4-1.1,15.9c1,1.8,3.2,1,4.8,0.5c3.6-1,3.8-5.3,4.9-8.3c1.5-3.8-0.8-7.5-2.2-10.9l0.2-0.6
			c3.9-2.6,8.1-4.6,12.2-6.8c1.8,2.1,3.8,4,6,5.7C474.6,567.5,473.9,564.9,473,562.3z M444,603.8c2.3,1.8,4.6,3.6,7,5.2
			c1.4-1.4,2.8-2.8,4.2-4.2c-1.5-2.5-3.4-4.7-5.3-6.8C446.7,598.4,444.6,600.8,444,603.8z"/>
	</g>
	<g>
		<path class="st1" d="M311.5,556.2c9,4.9,18.2,9.5,27.3,14.3c0,4.8,4.5,7.3,7.7,10.1c2.9,2.7,7.2,1.3,9.9-1
			c2.3,1.2,4.6,2.4,6.9,3.6c-1.6,0.3-3.3,0.7-4.9,1.1c-0.3,1.9-0.5,3.8-0.8,5.7c1.9,2.1,3.9,4.2,5.8,6.2
			c-8.4,3.6-16.9,6.8-25.2,10.5c0.7-1.8,2.4-3.8,1-5.8c-0.9-2-4.2-3.9-5.9-1.8c-1.8,1.5-3,3.5-4.3,5.4c1.3,1.4,2.5,2.9,3.8,4.3
			c-1.4,0.5-2.8,1.1-4.2,1.7c-2.8-1.7-6.1-4.9-9.6-2.8c-4.2,1.4-6.1,5.7-7.1,9.6c-1.8,0.7-3.5,1.5-5.3,2.2c-0.1-2.3-0.1-4.6-0.3-6.8
			c9-5.9,18.1-11.6,27.1-17.5c-0.2-0.6-0.6-1.8-0.9-2.5c1.4-2.3,4.6-4.1,3.9-7.2c-0.6-3.4-0.7-7.3-3.4-9.8c-1.7-1.7-3.5-3.3-5.5-4.7
			c-2.2,1.6-2.3,5-3.5,7.4c-0.9-1.5-1.7-3-2.6-4.5c0.8-2.7,1.3-5.5,1.5-8.3c-1.7,0.6-3.4,1.3-5,2.3
			C315.9,564.1,313.5,560.2,311.5,556.2z M341.1,581.6c0.4,2.2,0.9,4.3,1.1,6.5c-0.4,2.5-3.8,3.7-3.8,6.2c2.8,1,4.7,3,5.9,5.6
			c1.7-1.1,3.4-2.4,5.1-3.5c2.9-0.3,5.8,0.7,8.8,0.8c-1.5-1.9-3.3-3.7-4.7-5.7c-0.2-2.1,0.2-4.3,0.4-6.4c-2.5,0.1-4.9,0.5-7.4,0.2
			C344.6,584.2,342.9,582.8,341.1,581.6z"/>
	</g>
	<path class="st1" d="M985.3,582.8c0-6.9,0-13.8,0-20.6c10,8.1,20.1,16.3,30.2,24.4c0.1,6.9,0,13.8,0,20.7
		C1005.4,599.1,995.3,591,985.3,582.8z"/>
	<path class="st1" d="M426.5,587.6c1.5-0.8,3-1.5,4.5-2.2c-0.1,2,0,4.2-0.5,6.2c-1.1,1.9-2.6,3.5-3.6,5.4c-1.2-0.8-2.3-1.7-3.4-2.6
		c1.3-2,2.3-4.2,2.9-6.5L426.5,587.6z"/>
	<path class="st1" d="M985.3,600.6c10.2,7.8,20,16.2,30.1,24.2c0.1,15.4,0,30.7,0.1,46.1c-10.1,0-20.2,0-30.2,0
		C985.3,647.5,985.3,624,985.3,600.6z"/>
	<g>
		<path class="st1" d="M405.6,620.2c0.6-2.2,0.6-4.8,2.4-6.5c0.3,0.1,0.9,0.3,1.2,0.4c0.2,1.1,0.4,2.2,0.7,3.2
			c1.7,1.2,3.7-0.7,5.5-0.9c1.4,1.1,2.8,2.2,4.3,3.2l-0.5,0.2c-1.7,0.5-3.3,1.2-5,1.8c2.4,2.4,4.6,5.1,7.4,6.9
			c3.8,1.6,7.9,2.1,12,1.9c1.3,1,2.6,2,3.9,3c-3.1,2.3-6.9,1.7-10.5,1c1.2,1.3,2.6,2.6,3.6,4.1c0.4,2.6-0.3,5.1-0.6,7.7
			c2.9-0.3,5.7-0.9,8.6-0.6c1.6,0.9,3,2.2,4.4,3.4c-1.1-3.6-1-7.3,1.5-10.2c1.2,0.9,2.5,1.9,3.7,2.9c-1.7,4-0.5,8.5,0.9,12.4
			c2,2.8,4.9,4.8,7.5,7.1c1.1-3.4,2.5-6.6,4.2-9.8c4.6,3.6,9.2,7.3,13.9,10.7c-1.9,1.4-3.5,3.1-5,4.9c1.3,0.6,2.6,2,4,0.9
			c0.8-1.6,1.4-3.3,1.9-5.1c4.4,3.3,8.7,6.7,13.1,10.1c-1.2,1.3-2.4,2.6-3.6,3.9c3.8,1.1,7.6,3.2,11.7,2.5c3,2.4,6.8,4.1,8.5,7.8
			c-8.7-3.3-17.1-7.5-25.7-11.1c1.4-1.8,2.7-3.5,4.1-5.3c-2.1,0.1-4.2,0.3-6.3,0.8c-0.1,1.2-0.1,2.3-0.1,3.5
			c-10.7-4.8-21.4-9.5-32.1-14.3c-0.4-4.3-4.2-6.7-7.2-9.3c-2.3-2.3-5.7-1-8.5-0.9c-0.2,0.7-0.5,2.2-0.7,2.9
			c-3.1-1.3-7.4-4.6-9.7-0.4c-3-0.9-5.5-2.8-7.8-4.8c0.5,2.3,1.2,4.6,1.3,6.9c-1,2.1-2.7,3.7-4.1,5.4c0.6,0.6,1.3,1.2,1.9,1.9
			c-6.1,6.2-11.7,13-18.1,18.9c1.3-8.4,3.7-16.6,5.3-25c1.9,0.8,3.8,1.6,5.6,2.4c1.5-1.5,3.3-2.8,4.3-4.7c-0.5-5-1.2-11-6.2-13.8
			C402.5,633.4,404.3,626.8,405.6,620.2z M406.7,626.2c2.1,1.5,4.9,1.4,7.3,1.7c-1.6-1.7-3.2-3.5-5.1-4.8
			C407.2,622.8,405.5,624.7,406.7,626.2z M407.9,630.9c0.4,2.6,0.9,5.2,1.6,7.8c0.9,3.9,4.8,5.8,7.6,8.3c2.1,2.1,5.2,1,7.9,0.9
			c0.6-2.3,1.1-4.6,1.5-6.9c-2.6-2.9-5.1-5.9-8.2-8.2C414.9,631.6,411.3,631.4,407.9,630.9z M462.2,666.1c3.3-1.5,1.3-5,0.5-7.4
			C461.2,660.9,459.8,664,462.2,666.1z"/>
	</g>
	<g>
		<path class="st1" d="M366.5,619.1c3.6-1.4,7.1-2.8,10.6-4.4c1.2,0.2,2.5,0.3,3.8,0.4c-0.9,1.5-1.9,3-2.9,4.4
			c1.6,0.6,3.1,1.2,4.7,1.8c-2.8,12.4-5.5,24.9-8.4,37.3c-1-1.2-2.9-2-3.3-3.6c0.1-2.5,0.6-4.9,1-7.4c-2,1.5-3.9,3-6.1,4.3
			c-2.1,0.3-4.2,0.2-6.3,0.1c-0.1,2-0.2,3.9-0.3,5.9c-1.4-2.5-2.8-5-4.1-7.5c-8.2,0.1-16.3,0.4-24.4,0.5c1.8-0.2,3.5-0.5,5.3-0.8
			c0.4-2.4,1.8-5,0.2-7.2c-1.2-1.7-3-4.5-5.4-3c-5.4,0.9-5.3,7.2-6.7,11.3c-2,0-3.9,0.1-5.9,0.1c-0.5-3.8-1.5-7.5-3.6-10.8
			c10.7-4.2,21.3-8.7,32-13.1c1.5,1.1,2.9,2.4,4.6,3.2c3.5,0,7-0.8,10.3-2c2.9-1.6,4.8-4.4,7.1-6.7C368,620.9,367.2,620,366.5,619.1
			z M369.9,628c2.3-0.3,4.6-0.9,6.8-1.6c-0.1-1.2,0.1-2.5-1.1-3.3C372.9,623.1,371.5,626.2,369.9,628z M365,632.9
			c-2.8,2.1-5.3,4.8-7.6,7.5c-0.6,2.4,0.3,4.9,0.7,7.3c2.6,0,5.7,1.3,7.9-0.7c2.4-1.9,4.8-3.9,7-6.1c1.6-3.1,1.8-6.7,2.4-10.1
			C371.9,631.4,368.3,631.7,365,632.9z M338,637.2c0.9,1.1,1.8,2.2,2.6,3.3c2.7,2.7,0.3,6.5,0.3,9.7c1.9-1.5,3.8-3.1,5.6-4.8
			c2.3,0.2,4.5,0.4,6.8,0.6c-0.1-2.3-0.5-4.6-0.1-6.9c1.2-1.8,2.7-3.3,4.1-5c-2.4,0.3-4.8,0.8-7.2,0.9c-2.2-0.6-3.9-2.3-5.8-3.5
			C342.7,634.1,340.5,636,338,637.2z"/>
	</g>
	<path class="st1" d="M293.6,620.9c1.7-1.1,3.4-2.2,5.1-3.3c0.4,1.6,0.8,3.1,1.2,4.7c-1.6,0.7-3.2,1.3-4.8,2
		C294.6,623.1,294.1,622,293.6,620.9z"/>
	<path class="st1" d="M494.6,645.5c-0.4-2.5-0.5-5.1,0.2-7.5c3.2,4.5,6.3,9.1,9.6,13.5c-1.6,0.5-3.2,1-4.8,1.6
		c-2.7-2.1-5.4-4.1-8.1-6.2C492.5,646.4,493.5,645.9,494.6,645.5z"/>
	<path class="st1" d="M294.1,649c3.7-1.8,7.5-3.1,11.3-4.7c0.7,2.3,1.3,4.7,1.9,7.1c-5.1,0.1-10.2,0.3-15.3,0.2
		C292.7,650.7,293,649.5,294.1,649z"/>
	<path class="st1" d="M368.7,666.1c1.2-2,2.8-3.8,4.9-4.8c-1.3,5.2-1.8,10.6-3.9,15.6c-2.7-4.7-5.3-9.5-7.9-14.4
		C364.2,663.5,366.4,664.8,368.7,666.1z"/>
</g>
<g>
	<path class="st2" d="M483.1,521c4.1-1.1,8-2.7,12.1-4c0.7,2.2,1.4,4.3,2.1,6.5c-6,3.3-12,6.5-18,9.8c0.1-4.3,1.2-8.6,3.8-12.1
		L483.1,521z"/>
	<path class="st2" d="M460.6,529c1.1-0.4,2.2-0.8,3.4-1.1c-0.5,1.7,1.1,5.7-1.8,5.2C460.2,533.2,461.3,530.1,460.6,529z"/>
	<path class="st2" d="M474.7,529c0,2.3-0.1,4.6,0,6.9c-0.5,0.3-1,0.5-1.5,0.8c-1.1-0.7-2.2-1.5-3.3-2.2
		C471,532.4,472.7,530.5,474.7,529z"/>
	<path class="st2" d="M516.5,538.5c5.5-3.1,11-6.1,16.6-9.1c-4.4,4.3-9.2,8.4-13.7,12.6C518.4,540.9,517.4,539.7,516.5,538.5z"/>
	<path class="st2" d="M450,532.6c1.3-0.5,2.7-0.9,4-1.4c0.2,1.1,0.4,2.2,0.6,3.3c-0.4,0.4-1.3,1.2-1.8,1.6
		C451.9,535,451,533.8,450,532.6z"/>
	<path class="st2" d="M459,537.4c2.3,1.2,4.7,1.4,6.9,0.1c0.7,0.7,1.5,1.3,2.2,2c-6,3.2-11.9,6.5-17.9,9.7c-0.3-1-0.6-1.9-0.9-2.9
		c1-0.7,2-1.3,3-2c0.3-1.3,0.5-2.7,0.8-4c1.2,0,2.4,0,3.6,0.1C457.5,539.4,458.2,538.4,459,537.4z"/>
	<path class="st2" d="M419.1,543.4c5.1-1.9,10.3-3.6,15.5-5.4c1.7,2,3.5,3.9,5.3,5.9c-3.1,1.2-6.3,3-9.8,3
		C426.3,546.5,422.4,545.5,419.1,543.4z"/>
	<path class="st2" d="M441,538c2.3,0,4.6,0.3,6.7,1.2c0,0.7,0.1,2.1,0.1,2.8C444.6,542.9,442.8,540,441,538z"/>
	<path class="st2" d="M512.3,542.8c1.4,0.6,2.8,1.2,4.1,1.9c-2.6,2.4-5.3,4.8-7.9,7.2c-1.6-0.7-3.2-1.4-4.7-2.1
		c2-0.7,3.9-1.4,5.9-2.1C510.5,546,511.4,544.4,512.3,542.8z"/>
	<path class="st2" d="M344.5,543.3c5.4,0,10.9,0.4,16.3,1c-2.1,1.2-4.3,2.7-6.8,2.7C350.5,547,347.3,545.2,344.5,543.3z"/>
	<path class="st2" d="M370.3,544.9c1.8,0,3.7,0.1,5.5,0.1l0.1,0.3c2,4.3,0.6,10.7-4.7,11.4c-1.1-1.5-1.9-3.2-2.8-4.8
		c-1.9-0.8-3.7-1.5-5.6-2.2C365.7,548.8,368.9,547.9,370.3,544.9z"/>
	<path class="st2" d="M383.9,545.6c6.3,0.5,12.7,0.7,19,1.3c-0.6,0-1.7,0.1-2.3,0.1c0.1,1.7,0.8,3.6-0.2,5.2c-1.5,3.5-5.3,5-8.5,6.6
		c-3.4-1.6-7.6-2.9-8.9-6.8C381.6,549.9,383.1,547.6,383.9,545.6z"/>
	<path class="st2" d="M406.2,547.2c2.4,0.1,4.5-1.1,6.9-1.4l0.7,0.2c1.7,2.4,4.7,2.8,7.3,3.6c-3.7,1-7.1,3.1-8.4,6.9
		c-1.8-0.7-4-1.2-4.9-3C406.8,551.4,406.6,549.3,406.2,547.2z"/>
	<path class="st2" d="M436.8,549.4c2.5-0.8,5.1-1.2,7.8-1.3c0.4,1.2,0.8,2.3,1.2,3.5l0.1,0.3c-0.6,0.3-1.2,0.5-1.8,0.8
		C441.6,551.4,439.2,550.3,436.8,549.4z"/>
	<path class="st2" d="M428.6,552.6c3.5-0.6,6.7,1.3,9.7,2.8c-5.4,3.5-11.2,6.3-16.8,9.4c-1.6-1.4-3.1-2.8-4.6-4.1
		c0.9-2,1.3-4.3,3-5.8C422.7,553.7,425.6,553.1,428.6,552.6z"/>
	<path class="st2" d="M485.6,555.4c1.9-1.1,3.7-2.3,5.7-3.1c4.6,0,9.1,1.2,13.3,3c-3.1,2.9-6.3,5.7-9.4,8.6
		C491.1,562.2,487.9,559.2,485.6,555.4z"/>
	<path class="st2" d="M372,562.5c2.3-1.9,4.6-4,7.2-5.5c2.1,0.4,3.5,2.4,5.2,3.7c-1.7,1.9-3.3,3.7-5,5.6
		C376.9,565,374.5,563.8,372,562.5z"/>
	<path class="st2" d="M399.1,560.3c1.6-1.2,3.2-2.4,4.8-3.6c2.4,1.6,4.6,3.4,6.7,5.3c-0.8,2.5-2.6,5-5.6,4.9
		C402.6,565.2,401,562.6,399.1,560.3z"/>
	<path class="st2" d="M469,564.3c1.3-0.7,2.7-1.4,4-2c0.8,2.6,1.6,5.2,2.1,7.9c-2.2-1.7-4.2-3.6-6-5.7L469,564.3z"/>
	<path class="st2" d="M389.6,563.6c4-1,9,1.3,9.4,5.7c-2.4,0.9-4.7,2.1-6.6,3.8c-2.8-1.6-5.7-3-8.6-4.5
		C385.6,566.8,387.1,564.4,389.6,563.6z"/>
	<path class="st2" d="M478.3,564.9c4.3,0.3,8.6,1,12.4,3c-3,2.8-6,5.5-9,8.2C479.7,572.6,479,568.7,478.3,564.9z"/>
	<path class="st2" d="M318,568c1.6-0.9,3.3-1.7,5-2.3c-0.2,2.8-0.7,5.6-1.5,8.3C320.3,572,319.1,570,318,568z"/>
	<path class="st2" d="M324.1,578.5c1.1-2.4,1.3-5.7,3.5-7.4c2,1.4,3.8,3,5.5,4.7c2.7,2.5,2.8,6.4,3.4,9.8c0.7,3-2.5,4.9-3.9,7.2
		l-0.4,0.4C329.8,588.2,326.8,583.5,324.1,578.5z"/>
	<path class="st2" d="M338.8,570.5c5.9,3,11.7,6.1,17.6,9.1c-2.7,2.3-7,3.7-9.9,1C343.2,577.8,338.8,575.3,338.8,570.5z"/>
	<path class="st2" d="M466.3,575.4c0.7-1.3,0.6-3.8,2.4-4.1c3.3,2.5,7.5,5,7.8,9.6c-3,2.7-6,5.3-8.9,8.1
		C466.7,584.5,464.2,579.9,466.3,575.4z"/>
	<path class="st2" d="M450.5,574.7c1.6-1.4,3.7-2.4,5.7-3l0.6,0.2c1.4,3.4,3.7,7.1,2.2,10.9c-1.1,2.9-1.3,7.3-4.9,8.3
		c-1.5,0.5-3.8,1.3-4.8-0.5C444.6,586.2,448.4,579.5,450.5,574.7z"/>
	<path class="st2" d="M436.7,585.6c2.4-1.2,4.3-3,6.3-4.6c-0.4,2.6-1.1,5.2-1,7.8c1,1.9,2.6,3.5,4,5.1c-2.8,1.2-4.9,3.3-6.3,6
		c-1.9-1.3-3.8-2.8-6-3.7c-2.1,0-4.2,0.7-6.3,1.1l-0.9,0.2l0.3-0.7c1-1.9,2.5-3.5,3.6-5.4c0.5-2,0.4-4.1,0.5-6.2l0-0.2
		C432.9,585.3,434.8,585.9,436.7,585.6z"/>
	<path class="st2" d="M341.1,581.6c1.8,1.2,3.5,2.6,5.4,3.8c2.5,0.3,4.9-0.1,7.4-0.2c-0.2,2.1-0.6,4.2-0.4,6.4
		c1.5,2,3.2,3.7,4.7,5.7c-2.9-0.1-5.8-1-8.8-0.8c-1.7,1.1-3.4,2.4-5.1,3.5c-1.2-2.6-3.2-4.7-5.9-5.6c0-2.6,3.4-3.7,3.8-6.2
		C342,585.9,341.5,583.8,341.1,581.6z"/>
	<path class="st2" d="M363.2,583.2c3.1,2.1,9.1,2.8,8.6,7.7c-1.2,3.6-5.6,3.8-8.5,5.3c-2-2-3.9-4.1-5.8-6.2c0.3-1.9,0.6-3.8,0.8-5.7
		C359.9,583.9,361.6,583.5,363.2,583.2z"/>
	<path class="st2" d="M423.5,594.3c-0.5-2.6,0.1-5.5,2.9-6.5C425.8,590.1,424.8,592.3,423.5,594.3z"/>
	<path class="st2" d="M459.9,593.8c1.3-1.5,2-3.4,2.9-5c0.2,0.9,0.5,2.6,0.7,3.4c0.6,3,3,5.1,4.6,7.6c-1.7,0.7-3.4,1.5-5.3,1.9
		c-2.5,0.2-4.8-1.3-6.3-3.2c-0.5-0.8-2-1.8-0.7-2.6C457.1,595.1,458.6,594.5,459.9,593.8z"/>
	<path class="st2" d="M333.2,599.1c1.8-2,5-0.2,5.9,1.8c1.5,1.9-0.3,3.9-1,5.8c-1.8,0.7-3.7,1.4-5.5,2.1c-1.3-1.4-2.5-2.9-3.8-4.3
		C330.2,602.7,331.4,600.7,333.2,599.1z"/>
	<path class="st2" d="M444,603.8c0.7-3,2.7-5.4,5.8-5.8c2,2.1,3.9,4.3,5.3,6.8c-1.4,1.4-2.8,2.8-4.2,4.2
		C448.6,607.3,446.3,605.6,444,603.8z"/>
	<path class="st2" d="M318.9,607.7c3.5-2.1,6.8,1.1,9.6,2.8c-5.5,2.3-11.1,4.6-16.6,6.8C312.8,613.4,314.7,609.2,318.9,607.7z"/>
	<path class="st2" d="M456.7,609.7c2.2-1.7,5.1-3.5,7.9-2.3c3.7,1.2,6.4,4.7,7,8.5c-1.1,4.4-5,7.2-9,8.8c-3.5-2.8-7-5.4-10.5-8.1
		C453.7,614.3,455,611.9,456.7,609.7z"/>
	<path class="st2" d="M298.8,617.6c2.5-1.6,5-3.2,7.5-4.8c0.1,2.3,0.2,4.6,0.3,6.8c-2.2,0.9-4.4,1.8-6.6,2.7
		C299.6,620.7,299.2,619.2,298.8,617.6z"/>
	<path class="st2" d="M408,613.6c2.9-1.1,5.3,1,7.3,2.7c-1.8,0.2-3.8,2.1-5.5,0.9c-0.3-1.1-0.4-2.2-0.7-3.2
		C408.9,614,408.3,613.7,408,613.6z"/>
	<path class="st2" d="M377.1,614.8c1.8-0.5,3.9-0.9,5.3,0.6c1.7,1.6,0.7,4,0.3,6c-1.6-0.6-3.2-1.2-4.7-1.8c1-1.4,2-2.9,2.9-4.4
		C379.5,615.1,378.3,614.9,377.1,614.8z"/>
	<path class="st2" d="M477.7,613.7c2.4,3,4.5,6.2,6.7,9.4c-2.1-0.9-4.6-1.5-5.9-3.5C477.1,617.9,477.6,615.7,477.7,613.7z"/>
	<path class="st2" d="M346.7,627.3c6.6-2.7,13.2-5.4,19.8-8.2c0.8,0.9,1.5,1.8,2.3,2.7c-2.3,2.3-4.3,5.1-7.1,6.7
		c-3.3,1.1-6.8,2-10.3,2C349.6,629.7,348.2,628.4,346.7,627.3z"/>
	<path class="st2" d="M414.1,621.5c1.7-0.6,3.3-1.3,5-1.8c5.2,2.8,9.6,7.1,14.4,10.6c-4.1,0.2-8.2-0.3-12-1.9
		C418.7,626.6,416.5,623.9,414.1,621.5z"/>
	<path class="st2" d="M276.9,631.8c5.5-3.8,11.2-7.2,16.8-10.9c0.5,1.1,1,2.3,1.5,3.4C289,626.7,283,629.4,276.9,631.8z"/>
	<path class="st2" d="M369.9,628c1.6-1.8,3-4.9,5.8-4.8c1.1,0.7,0.9,2.1,1.1,3.3C374.5,627.2,372.2,627.7,369.9,628z"/>
	<path class="st2" d="M406.7,626.2c-1.2-1.5,0.6-3.4,2.3-3.1c1.9,1.3,3.5,3.1,5.1,4.8C411.5,627.6,408.8,627.7,406.7,626.2z"/>
	<path class="st2" d="M469.7,626.8c1.4-1.4,2.9-2.7,4.3-4.1c2.4,1.6,5.1,3,6.9,5.4c-0.2,3.7-4,4.9-7.1,5.1l-0.5,0.1l0-0.5
		c0-0.4,0.1-1.1,0.1-1.5C472.3,629.7,471,628.2,469.7,626.8z"/>
	<path class="st2" d="M365,632.9c3.3-1.3,6.9-1.5,10.3-2c-0.6,3.4-0.8,7-2.4,10.1c-2.1,2.3-4.6,4.2-7,6.1c-2.2,1.9-5.3,0.7-7.9,0.7
		c-0.4-2.4-1.3-4.9-0.7-7.3C359.8,637.7,362.2,635,365,632.9z"/>
	<path class="st2" d="M407.9,630.9c3.4,0.5,7,0.7,10.3,1.9c3.1,2.3,5.6,5.3,8.2,8.2c-0.3,2.3-0.8,4.6-1.5,6.9
		c-2.6,0.1-5.7,1.2-7.9-0.9c-2.8-2.4-6.7-4.4-7.6-8.3C408.8,636.1,408.3,633.5,407.9,630.9z"/>
	<path class="st2" d="M338,637.2c2.6-1.3,4.8-3.1,6.2-5.6c1.9,1.2,3.6,2.9,5.8,3.5c2.4-0.2,4.8-0.6,7.2-0.9c-1.3,1.7-2.8,3.2-4.1,5
		c-0.3,2.3,0,4.6,0.1,6.9c-2.3-0.2-4.5-0.4-6.8-0.6c-1.8,1.7-3.6,3.3-5.6,4.8c0-3.2,2.4-7-0.3-9.7
		C339.7,639.4,338.8,638.3,338,637.2z"/>
	<path class="st2" d="M479.6,637.7c2-1.8,3.9-3.8,5.7-5.9c2.3,1.5,4.7,3,7.5,3.4c0.6,0.9,1.3,1.8,1.9,2.7c-0.6,2.5-0.6,5-0.2,7.5
		c-1,0.5-2.1,0.9-3.1,1.4C487.5,643.8,483.6,640.7,479.6,637.7z"/>
	<path class="st2" d="M437.4,633.3c2.3,1.8,4.6,3.6,7,5.4c-2.6,2.9-2.6,6.6-1.5,10.2c-1.4-1.2-2.8-2.5-4.4-3.4
		c-2.9-0.3-5.7,0.3-8.6,0.6c0.3-2.5,1-5.1,0.6-7.7c-1-1.5-2.4-2.8-3.6-4.1C430.5,635,434.3,635.6,437.4,633.3z"/>
	<path class="st2" d="M330.9,639.8c2.4-1.5,4.1,1.3,5.4,3c1.5,2.2,0.1,4.9-0.2,7.2c-1.8,0.3-3.5,0.6-5.3,0.8
		c-2.2,0.2-4.4,0.2-6.6,0.2C325.6,646.9,325.5,640.7,330.9,639.8z"/>
	<path class="st2" d="M401.2,640L401.2,640c5,2.8,5.7,8.8,6.3,13.8c-1,1.9-2.8,3.2-4.3,4.7c-1.9-0.8-3.8-1.6-5.6-2.4
		C398.8,650.7,399.9,645.3,401.2,640z"/>
	<path class="st2" d="M305.4,644.3c3.1-1.3,6.3-2.6,9.4-3.9c2,3.3,3,7,3.6,10.8c-3.7,0.1-7.3,0.2-11,0.2
		C306.7,649,306,646.7,305.4,644.3z"/>
	<path class="st2" d="M448.1,641.6c4.2,3.2,8.4,6.4,12.6,9.6c-1.6,3.1-3,6.4-4.2,9.8c-2.5-2.3-5.5-4.2-7.5-7.1
		C447.5,650.1,446.4,645.6,448.1,641.6z"/>
	<path class="st2" d="M365.9,651.8c2.2-1.2,4.1-2.8,6.1-4.3c-0.4,2.4-0.9,4.9-1,7.4c0.3,1.7,2.2,2.4,3.3,3.6
		c-0.2,0.9-0.4,1.8-0.6,2.6c-2.1,1.1-3.7,2.8-4.9,4.8c-2.2-1.3-4.5-2.6-6.9-3.6c-0.9-1.5-1.7-3.1-2.5-4.6c0.1-2,0.2-3.9,0.3-5.9
		C361.7,652,363.8,652.1,365.9,651.8z"/>
	<path class="st2" d="M411.1,648c2.3,2,4.8,3.9,7.8,4.8c-2.9,3.2-5.8,6.2-8.7,9.4c-0.6-0.6-1.3-1.3-1.9-1.9c1.4-1.7,3.1-3.3,4.1-5.4
		C412.4,652.5,411.7,650.2,411.1,648z"/>
	<path class="st2" d="M429.3,650.3c2.8-0.1,6.2-1.4,8.5,0.9c3,2.5,6.8,5,7.2,9.3c-5.5-2.3-10.9-4.8-16.4-7.2
		C428.8,652.4,429.1,651,429.3,650.3z"/>
	<path class="st2" d="M499.5,653c1.6-0.5,3.2-1.1,4.8-1.6c2.5,3.8,5.3,7.4,7.7,11.3C507.9,659.4,503.6,656.3,499.5,653z"/>
	<path class="st2" d="M462.2,666.1c-2.4-2.1-1-5.3,0.5-7.4C463.5,661.2,465.5,664.7,462.2,666.1z"/>
	<path class="st2" d="M474.6,661.9c0.2,0.2,0.6,0.6,0.8,0.7c-0.5,1.7-1,3.5-1.9,5.1c-1.4,1.1-2.7-0.3-4-0.9
		C471.1,665,472.7,663.3,474.6,661.9z"/>
	<path class="st2" d="M477.2,671.2c2-0.5,4.2-0.7,6.3-0.8c-1.3,1.8-2.7,3.6-4.1,5.3c-0.8-0.4-1.5-0.7-2.3-1
		C477.1,673.6,477.2,672.4,477.2,671.2z"/>
	<path class="st2" d="M488.5,672.7c2.8,2.1,5.5,4.1,8.1,6.4c-4.1,0.7-7.9-1.4-11.7-2.5C486.1,675.3,487.3,674,488.5,672.7z"/>
</g>
</svg>
