<?xml version="1.0" encoding="utf-8"?>
<!-- Generator: Adobe Illustrator 19.0.0, SVG Export Plug-In . SVG Version: 6.00 Build 0)  -->
<svg version="1.1" id="Layer_1" xmlns="http://www.w3.org/2000/svg" xmlns:xlink="http://www.w3.org/1999/xlink" x="0px" y="0px"
	 viewBox="0 0 200 100" style="enable-background:new 0 0 200 100;" xml:space="preserve">
<style type="text/css">
	.st0{fill:#FFFFFF;}
	.st1{fill:#B72025;}
	.st2{fill:#205228;}
	.st3{fill:#3F7740;}
</style>
<g id="XMLID_1_">
	<g id="XMLID_161_">
		<path id="XMLID_162_" class="st0" d="M180.6,48.7c0.1-0.4,0.3-0.7,0.5-1c0.1,0.3,0.3,0.7,0.4,1.1
			C181.2,48.7,180.9,48.7,180.6,48.7z"/>
	</g>
	<g id="XMLID_130_">
		<path id="XMLID_160_" class="st1" d="M101.1,12.5c2-1,4.4-1.1,6.5-0.2c2,0.8,3.6,2.5,4.3,4.6c0.7,2,0.5,4.3-0.5,6.2
			c-1,1.9-2.7,3.3-4.8,3.8c-3.2,0.9-6.8-0.5-8.6-3.3c-15.2,8.3-30.5,16.6-45.7,24.9c0.5,0.8,0.6,1.7,0.2,2.5
			C62.9,59,73.2,66.9,83.4,74.8c1.2-1.3,2.9-2.2,4.7-2.5c2.1-0.3,4.4,0.4,6,1.7c1.5,1.2,2.5,3.1,2.7,5c0.3,2.1-0.4,4.3-1.8,5.9
			c-1.4,1.7-3.7,2.8-5.9,2.7c-2.3,0-4.6-1.1-6-2.9c-2.2-2.6-2.3-6.6-0.3-9.3c-10.3-8-20.6-15.9-30.9-23.8c-0.6,0.4-1.3,0.5-2,0.4
			c-1.6,7.1-3.2,14.2-4.8,21.4c1.7,0.6,3.3,1.7,4.2,3.3c1.2,1.9,1.5,4.3,0.8,6.5c-0.6,2-2.1,3.7-3.9,4.6c-1.8,0.9-3.9,1.1-5.8,0.5
			c-2.1-0.6-3.8-2.2-4.7-4.2c-1-2.3-0.9-5,0.4-7.1c1.6-2.7,4.9-4.2,8-3.6c1.6-7.2,3.3-14.4,4.9-21.6c-0.2-0.1-0.4-0.7-0.8-0.4
			c-7.9,3.2-15.8,6.5-23.7,9.7c-1.8,0.8-3.6,1.4-5.4,2.2c0.6,2,0.4,4.2-0.7,6c-0.9,1.7-2.5,2.9-4.3,3.5c-1.8,0.6-3.9,0.5-5.7-0.4
			c-1.8-0.8-3.3-2.4-4-4.3c-0.8-2-0.6-4.3,0.4-6.2c0.9-1.8,2.7-3.3,4.6-3.9c2.2-0.7,4.6-0.3,6.5,1c1.2,0.8,2.1,2,2.8,3.3
			c9.8-4,19.5-8,29.3-12c0-0.4,0-0.8,0.1-1.2c-7.5-3.9-15-7.8-22.6-11.7c-1,1.2-2.3,2.2-3.8,2.6c-2.2,0.7-4.7,0.3-6.7-1
			c-1.9-1.3-3.2-3.4-3.4-5.7c-0.2-2.1,0.5-4.2,1.8-5.8c1.4-1.6,3.4-2.6,5.6-2.7c2.1-0.1,4.3,0.8,5.8,2.3c2.5,2.4,2.9,6.5,1.2,9.4
			c7.5,3.9,15,7.8,22.6,11.7c0.7-0.7,1.8-0.9,2.7-0.5c15.3-8.4,30.7-16.8,46-25.1c-0.8-1.7-1-3.7-0.4-5.4
			C97.8,15.3,99.3,13.5,101.1,12.5z"/>
		<g id="XMLID_156_">
			<path id="XMLID_157_" class="st1" d="M180.4,46.3c0.4,0,0.7,0,1.1,0c0.6,1.4,1.2,2.8,1.8,4.2c-0.4,0-0.8,0-1.2,0
				c-0.1-0.3-0.2-0.6-0.3-0.9c-0.5,0-1.1,0-1.6,0c-0.1,0.3-0.2,0.6-0.3,0.9c-0.4,0-0.8,0-1.2,0C179.3,49.1,179.9,47.7,180.4,46.3z
				 M180.6,48.7c0.3,0,0.6,0,0.9,0c-0.1-0.4-0.3-0.7-0.4-1.1C180.9,48,180.7,48.3,180.6,48.7z"/>
		</g>
		<g id="XMLID_152_">
			<path id="XMLID_153_" class="st1" d="M183.8,46.3c1,0,2,0,3,0c0.9,0,1.6,1.2,1.1,1.9c-0.2,0.3-0.5,0.4-0.8,0.6
				c0.4,0.5,0.7,1,1.1,1.6c-0.4,0-0.9,0.2-1.3,0c-0.4-0.5-0.7-1-1-1.5c-0.3,0-0.6,0-1,0c0,0.5,0,1.1,0,1.6c-0.4,0-0.7,0-1.1,0
				C183.8,49.1,183.8,47.7,183.8,46.3z M184.9,47.2c0,0.3,0,0.6,0,0.9c0.6-0.1,1.5,0.3,1.9-0.4C186.6,46.8,185.5,47.3,184.9,47.2z"
				/>
		</g>
		<path id="XMLID_151_" class="st1" d="M189.9,46.4c0.9-0.2,1.7-0.1,2.6-0.1c0,0.3,0,0.6,0,0.9c-0.7,0-1.3,0-2,0
			c-0.4,0-0.6,0.4-0.7,0.7c0.9,0,1.8,0,2.7,0c0,0.3,0,0.6,0,0.9c-0.9,0-1.8,0-2.7,0c0.1,0.3,0.3,0.7,0.7,0.8c0.7,0.1,1.4,0,2,0
			c0,0.3,0,0.6,0,0.9c-0.9,0-1.8,0.1-2.7-0.1C188.1,49.8,188.2,46.9,189.9,46.4z"/>
		<g id="XMLID_147_">
			<path id="XMLID_148_" class="st1" d="M192.9,50.5c0.5-1.4,1.1-2.8,1.7-4.2c0.4,0,0.7,0,1.1,0c0.6,1.4,1.2,2.8,1.8,4.2
				c-0.4,0-0.8,0-1.2,0c-0.1-0.3-0.2-0.6-0.3-0.9c-0.5,0-1.1,0-1.6,0c-0.1,0.3-0.2,0.6-0.4,0.9C193.6,50.5,193.3,50.5,192.9,50.5z
				 M195.1,47.6c-0.1,0.3-0.3,0.7-0.4,1.1c0.3,0,0.6,0,0.9,0C195.5,48.3,195.3,48,195.1,47.6z"/>
		</g>
		<path id="XMLID_146_" class="st1" d="M80,59.9c0.6,0,1.1,0,1.7,0c0,1.9,0,3.8,0,5.7c-0.6,0-1.1,0-1.7,0C79.9,63.7,80,61.8,80,59.9
			z"/>
		<path id="XMLID_145_" class="st1" d="M90,59.9c0.4,0,0.9,0,1.3,0c0,0.5,0,1,0,1.4c0.3,0,0.8-0.1,1.1,0.1c0,0.3,0,0.6,0,0.9
			c-0.4,0-0.7,0-1.1,0c0,0.6,0,1.3,0,1.9c0.2,0.4,0.7,0.2,1,0.3c0,0.3,0,0.7,0,1c-0.8,0-1.8,0.2-2.2-0.7c-0.2-0.8-0.1-1.7-0.1-2.6
			c-0.2,0-0.5,0-0.7,0c0-0.3,0-0.7,0-1c0.2,0,0.5,0,0.7,0C90,60.8,90,60.4,90,59.9z"/>
		<path id="XMLID_144_" class="st1" d="M99.9,59.9c0.4,0,0.9,0,1.3,0c0.1,1.9,0,3.8,0,5.7c-0.4,0-0.9,0-1.3,0
			C99.9,63.7,99.9,61.8,99.9,59.9z"/>
		<path id="XMLID_143_" class="st1" d="M103.2,65.6c0-1.9,0-3.8,0-5.7c0.4,0,0.9,0,1.3,0c0,1.9,0,3.8,0,5.7
			C104,65.6,103.6,65.6,103.2,65.6z"/>
		<path id="XMLID_142_" class="st1" d="M106.5,59.9c0.4,0,0.9,0,1.3,0c0,0.4,0,0.8,0,1.2c-0.4,0-0.9,0-1.3,0
			C106.5,60.7,106.5,60.3,106.5,59.9z"/>
		<path id="XMLID_141_" class="st1" d="M83.6,65.6c0-1.4,0-2.9,0-4.3c1,0,1.9,0,2.9,0c0.6,0.1,1.1,0.6,1.1,1.2c0,1,0,2,0,3
			c-0.4,0-0.9,0-1.3,0c-0.1-1,0.1-2-0.1-3c-0.4-0.3-0.9-0.1-1.3-0.2c0,1.1,0,2.1,0,3.2C84.5,65.6,84.1,65.6,83.6,65.6z"/>
		<path id="XMLID_140_" class="st1" d="M94.6,65c-1-1.1-0.6-3.1,0.9-3.6c0.8-0.2,1.6-0.1,2.4-0.1c0,0.3,0,0.7,0,1
			c-0.8,0.1-2.1-0.4-2.4,0.6c0.8,0,1.6,0,2.4,0c0,0.3,0,0.7,0,1c-0.8,0-1.6,0-2.4,0c0.4,0.9,1.6,0.5,2.4,0.6c0,0.3,0,0.6,0,1
			C96.8,65.5,95.4,66,94.6,65z"/>
		<path id="XMLID_139_" class="st1" d="M106.5,61.3c0.4,0,0.9,0,1.3,0c0,1.4,0,2.9,0,4.3c-0.4,0-0.9,0-1.3,0
			C106.5,64.2,106.5,62.7,106.5,61.3z"/>
		<g id="XMLID_135_">
			<path id="XMLID_136_" class="st1" d="M110.4,65.2c-1.2-1-0.9-3.4,0.7-3.8c1-0.1,2.1,0,3.1-0.1c0,1.4,0,2.8,0,4.3
				c0,0.7-0.5,1.4-1.3,1.5c-0.9,0.1-1.9,0-2.9,0c0-0.4,0-0.7,0-1.1c0.8,0,1.6,0,2.5,0c0.1-0.1,0.3-0.3,0.4-0.4
				C112.1,65.5,111,65.8,110.4,65.2z M111.6,62.5c-0.5,0.3-0.6,1.2-0.3,1.7c0.3,0.5,1,0.3,1.5,0.4c0-0.7,0-1.4,0-2.1
				C112.4,62.5,112,62.4,111.6,62.5z"/>
		</g>
		<path id="XMLID_134_" class="st1" d="M116.6,65c-1-1.1-0.5-3.2,1-3.6c0.8-0.1,1.6,0,2.4,0c0,0.3,0,0.7,0,1c-0.8,0.1-2-0.4-2.4,0.6
			c0.8,0,1.6,0,2.4,0c0,0.3,0,0.7,0,1c-0.8,0.1-1.6,0-2.4,0c0.1,0.2,0.2,0.5,0.5,0.5c0.6,0.1,1.3,0,2,0.1c0,0.3,0,0.6,0,0.9
			C118.8,65.5,117.4,66,116.6,65z"/>
		<path id="XMLID_133_" class="st1" d="M121.9,61.3c1,0,1.9-0.1,2.9,0c0.6,0,1.1,0.6,1.1,1.2c0.1,1,0,2,0,3c-0.4,0-0.9,0-1.3,0
			c0-0.9,0-1.9,0-2.8c-0.2-0.6-0.9-0.3-1.4-0.3c0,1.1,0,2.1,0,3.2c-0.4,0-0.9,0-1.3,0C121.9,64.2,121.9,62.8,121.9,61.3z"/>
		<path id="XMLID_132_" class="st1" d="M129,61.5c0.9-0.4,1.9-0.2,2.9-0.2c0,0.4,0,0.8,0,1.1c-0.6,0-1.3,0-1.9,0.1
			c-0.9,0.3-0.9,1.7,0,2c0.7,0.1,1.3,0,2,0.1c0,0.3,0,0.7,0,1c-1,0-2,0.2-3-0.2C127.4,64.6,127.5,62.2,129,61.5z"/>
		<path id="XMLID_131_" class="st1" d="M134.1,65c-1-1.1-0.5-3.2,1-3.6c0.8-0.1,1.6,0,2.4,0c0,0.3,0,0.7,0,1
			c-0.8,0.1-2.1-0.4-2.4,0.7c0.8,0,1.6,0,2.4,0c0,0.3,0,0.7,0,1c-0.8,0-1.6,0-2.4,0c0.1,0.2,0.2,0.5,0.4,0.5c0.6,0.1,1.3,0,2,0.1
			c0,0.3,0,0.6,0,0.9C136.4,65.5,134.9,66,134.1,65z"/>
	</g>
	<g id="XMLID_65_">
		<path id="XMLID_129_" class="st2" d="M69.1,34.8c2.4-0.7,4.7-1.7,7.1-2.4c-0.5,0.4-1.1,0.6-1.7,1c-1.6,1-3.4,1.8-5,2.8
			C69.3,35.7,69.2,35.2,69.1,34.8z"/>
		<g id="XMLID_124_">
			<path id="XMLID_125_" class="st2" d="M63.9,36.6c0.9-0.3,1.8-0.7,2.7-0.9c-0.4,0.7-0.7,1.5-0.7,2.4c-0.3,0.2-0.6,0.3-0.9,0.5
				c-0.1-0.5,0-0.9,0.1-1.4c-0.4,0.3-0.7,0.6-1,1c0.2,0.2,0.4,0.4,0.6,0.6c-0.3,0.2-0.6,0.3-0.9,0.5c-0.2-0.1-0.3-0.3-0.5-0.4
				c-0.2,0.1-0.5,0.2-0.7,0.3c-0.2-0.1-0.4-0.2-0.6-0.3c-0.3,0.5-0.8,0.7-1.3,0.7c0,0.2,0,0.5,0,0.7c-0.2,0.1-0.4,0.3-0.7,0.4
				c0.1,0.2,0.2,0.4,0.2,0.5c-0.3,0.2-0.7,0.4-1,0.5c0-0.2-0.1-0.5-0.2-0.7c-0.5,0-1.1,0.1-1.6,0.2c0.5,0.2,1,0.4,1.4,0.7
				c-0.3,0.2-0.7,0.3-1,0.5c-0.6-0.2-1.3-0.5-1.9-0.5c-0.7,0.1-1.4,0.2-2,0.6c-0.3,0.3-0.4,0.7-0.5,1.1c0.3,0.3,0.7,0.5,1,0.8
				c-0.9,0.4-1.7,0.9-2.5,1.4c-0.4,0.3-0.8,0.1-1.2,0.1c-0.7,0-1.4,0.5-2.1,0.2c0.4-0.4,0.9-0.6,1.3-0.9c-0.2-0.8-1.1-1.2-1.8-1.1
				c-0.6,0.1-0.9,0.6-1.2,1c-0.3-0.2-0.6-0.3-0.9-0.5c0.3-0.4,0.7-0.8,1-1.2c-0.3-0.2-0.7-0.5-1-0.7c-0.5,0.4-1,0.7-1.4,1.2
				c-0.5-0.2-0.9-0.4-1.3-0.7c-0.1-0.3-0.2-0.5-0.3-0.7c-0.6-0.3-1.3-0.4-2-0.5c-1.4-0.6-2.7-1.4-4.1-2.1c0.7,0,1.3,0.1,2,0.1
				c1,0.8,2.4,1,3.5,0.3c0.6-0.1,1.1,0,1.7,0.1c-0.1,0.1-0.2,0.4-0.2,0.6c-0.4,0.1-0.8,0.3-1.2,0.4c0.4,0.2,0.7,0.3,1.1,0.5
				c0.3,0.3,0.4,0.8,0.7,1c0.9-0.3,1.1-1.4,0.9-2.2c0.1,0,0.4-0.1,0.6-0.1c0.3,0,0.5,0,0.8,0c-0.7,1.2,0.6,2.4,1.7,2.6
				c1-0.2,2.1-1.2,1.7-2.3c0.1,0,0.2,0,0.3,0c0.3,0,0.6,0,0.9,0.1c0,0.4,0,0.8,0.2,1.1c0.2,0.4,0.6,0.6,1,0.8c0.2-0.3,0.4-0.7,0.7-1
				c0.4-0.2,0.7-0.3,1.1-0.4c-0.6-0.2-1.3-0.3-1.6-0.9c0.3-0.1,0.6-0.3,1-0.3l0.2,0c0.9,0.4,2,0.8,3,0.5c0.4-0.1,0.7-0.3,1.1-0.4
				c-0.3-0.4-0.7-0.8-1-1.2c1.1-0.4,2.1-0.7,3.2-1.1c0.2,0.3,0.4,0.6,0.7,0.7c0-0.3,0-0.7,0-1c0.5-0.2,1-0.3,1.4-0.5
				c-0.1,0.2-0.1,0.5-0.2,0.7c0.2,0.1,0.5,0.2,0.7,0.2c0-0.3-0.1-0.7-0.1-1C63.1,36.9,63.4,36.8,63.9,36.6L63.8,37
				C63.8,36.9,63.9,36.7,63.9,36.6z M58.2,39c0.3,0.4,1,1.3,1.4,0.6C59.4,39,58.6,39.1,58.2,39z M49.7,43.6c0.3,0.4,0.7,0.9,1.1,1.3
				c0.6,0.1,1-0.4,1.2-0.9c-0.4-0.4-0.9-0.8-1.5-1.1C50.3,43.1,50,43.3,49.7,43.6z"/>
		</g>
		<path id="XMLID_123_" class="st2" d="M68.3,41.9c2.8-1.5,5.5-3,8.3-4.5c-1.1,1-2.2,1.9-3.2,2.9c-0.3-0.1-0.6-0.2-0.8-0.4
			c-0.2,0.3-0.3,0.6-0.5,1c-0.4,0.1-0.8,0.3-1.2,0.4c0.3,0.2,0.6,0.3,0.9,0.5c-0.3,0.2-0.5,0.5-0.8,0.7
			C70.1,42.2,69.2,41.9,68.3,41.9z"/>
		<g id="XMLID_119_">
			<path id="XMLID_120_" class="st2" d="M155.8,38.7c2.9-0.2,6-0.1,8.6,1.3c2,1.1,2.9,3.3,3.2,5.5c0.3,2.3,0.3,4.8-0.5,7
				c-0.6,1.7-1.8,3.2-3.4,4c-2.2,1.1-4.8,1.3-7.2,1.2c-2.3-0.1-4.6-0.6-6.4-2.2c-1.8-1.6-2.5-4-2.6-6.3c-0.2-2.5,0.2-5.3,1.8-7.3
				C151,39.9,153.5,38.9,155.8,38.7z M156.3,42.6c-1.8,0.3-3.1,2-3.4,3.7c-0.3,1.7-0.2,3.5,0.4,5.1c0.5,1.4,1.9,2.1,3.3,2.3
				c1.5,0.2,3.2,0.2,4.5-0.8c1.2-0.9,1.5-2.5,1.6-3.9c0.1-1.8,0-3.8-1.3-5.2C160.2,42.5,158.1,42.2,156.3,42.6z"/>
		</g>
		<path id="XMLID_118_" class="st2" d="M79.2,39.3c0.1-0.1,0.3-0.3,0.3-0.4c2.1,0,4.1,0,6.2,0c1.7,4.4,3.3,8.9,5,13.3
			c1.6-4.4,3.2-8.9,4.7-13.3c2.1,0,4.3,0,6.4,0c0.1,0.1,0.3,0.3,0.3,0.3c0,5.5,0,11.1,0,16.6c0,0.5,0.1,1.1-0.3,1.5
			c-1.3,0-2.6,0-3.8,0c-0.5-0.2-0.3-0.8-0.3-1.2c0-3.6,0-7.1,0-10.7c-1.5,4-3,8-4.5,11.9c-1.7,0-3.4,0-5,0c-1.5-4.1-3-8.2-4.6-12.2
			c0,3.9,0,7.7,0,11.6c0.1,0.4-0.3,0.7-0.7,0.6c-1.1,0-2.3,0-3.4,0c-0.1-0.1-0.2-0.2-0.3-0.3C79.2,51.1,79.2,45.2,79.2,39.3z"/>
		<g id="XMLID_114_">
			<path id="XMLID_115_" class="st2" d="M111.6,39.3c0.1-0.1,0.2-0.3,0.2-0.4c1.6,0,3.2,0,4.7,0c2.6,6,5.2,12,7.7,18
				c-0.1,0.2-0.2,0.3-0.3,0.5c-1.6,0-3.1,0-4.7,0c-0.5-1.3-1-2.7-1.5-4c-2.3,0-4.6,0-6.9,0c-0.5,1.3-1.1,2.7-1.6,4
				c-1.5,0-3.1,0-4.6,0c-0.1-0.1-0.2-0.3-0.3-0.5C106.8,51,109.2,45.2,111.6,39.3z M114.3,44.6c-0.6,1.6-1.2,3.3-1.8,4.9
				c1.3,0,2.5,0,3.8,0C115.6,47.9,115,46.3,114.3,44.6z"/>
		</g>
		<g id="XMLID_110_">
			<path id="XMLID_111_" class="st2" d="M126.4,39.6c-0.1-0.4,0.2-0.8,0.6-0.7c4.2,0,8.5,0,12.7,0c1.3,0,2.5,0.4,3.4,1.3
				c1.7,1.5,2.4,4,1.9,6.2c-0.5,1.8-2.1,3.2-3.9,3.6c1.5,2.3,3.1,4.5,4.6,6.8c-0.1,0.2-0.2,0.4-0.3,0.6c-1.7,0-3.5,0-5.2,0
				c-1.5-2.3-3-4.6-4.6-6.8c-1.4-0.2-2.9,0-4.3-0.1c0,2.2,0,4.4,0,6.6c-0.2,0.2-0.4,0.4-0.7,0.4c-1.2,0-2.4,0-3.6,0
				c-0.3,0.1-0.7-0.3-0.6-0.6C126.4,51.1,126.4,45.3,126.4,39.6z M131.3,42.6c0,1.4,0,2.8,0,4.3c1.7,0,3.3,0,5,0
				c0.9,0,1.9-0.2,2.6-0.9c0.8-0.7,0.6-2.1-0.2-2.8c-0.7-0.6-1.7-0.7-2.6-0.7C134.5,42.6,132.9,42.6,131.3,42.6z"/>
		</g>
		<path id="XMLID_109_" class="st2" d="M173.1,41.4c1.3-1.7,3.5-2.4,5.6-2.5c2.5,0,5,0,7.5,0c0.1,0.1,0.2,0.3,0.3,0.4
			c0.1,1.1,0,2.3,0,3.4c-0.2,0.1-0.3,0.4-0.6,0.3c-2.4,0-4.8,0-7.3,0c-0.8,0-1.6,0.5-2,1.3c-0.7,1.3-0.8,2.8-0.8,4.2
			c0,1.4,0.3,2.9,1.2,4.1c0.4,0.6,1.1,0.9,1.9,0.9c2.3,0,4.7,0,7.1,0c0.3-0.1,0.5,0.2,0.7,0.4c0,1,0,2.1,0,3.1
			c-0.2,0.2-0.4,0.4-0.7,0.4c-2.5,0-5.1,0-7.6,0c-1.7,0-3.4-0.5-4.6-1.6c-1.8-1.7-2.6-4.2-2.7-6.6C170.8,46.4,171.4,43.6,173.1,41.4
			z"/>
		<g id="XMLID_105_">
			<path id="XMLID_106_" class="st2" d="M61.3,45.7c1.9-1,3.9-2.1,5.8-3.2c0.5,0.7,1.1,1.4,2,1.7c-0.3,0.2-0.6,0.5-0.8,0.7
				c-0.9-0.2-1.7-0.5-2.6-0.5c0.1,0.8,0.3,1.6,0.6,2.3c-0.3,0.3-0.7,0.6-1,0.9c-0.1-1-1-1.4-1.7-2c-0.2,0.6-0.6,1.2-0.6,1.8
				c0.1,0.6,0.3,1.2,0.4,1.8c-0.2,0.2-0.4,0.3-0.6,0.5c-0.2-0.2-0.3-0.3-0.5-0.5c-0.1,0.3-0.2,0.6-0.4,0.9c-0.3,0.3-0.7,0.4-1.1,0.6
				c0.3,0.4,0.5,0.9,1,1c0.6,0.2,1.1-0.1,1.6-0.3c1.6,2.4,3.4,4.7,5,7.2c-0.6-0.1-1-0.4-1.5-0.7c-0.3,0.5-0.8,0.9-1.3,1.1
				c-0.3-0.2-0.6-0.5-0.9-0.7c0.5-0.3,1.2-0.5,1.3-1.2c-0.4-0.5-0.9-0.8-1.4-1.1c-0.3,0.3-0.6,0.5-0.9,0.8c0.4,0.4,0.8,0.8,0.9,1.4
				c-0.8-0.6-1.5-1.2-2.3-1.7c0.7-0.3,1.4-0.7,1.7-1.4c0.4-0.6-0.1-1.2-0.5-1.6c-0.5-0.4-1.1-0.8-1.7-0.4c-0.8,0.3-1.1,1.1-1.5,1.8
				c-1.7-1.3-3.3-2.6-5-3.9c0.4-0.1,0.9-0.2,1.3-0.2c0.4,0.2,0.8,0.5,1.2,0.7c0.3-0.5,0.7-0.9,1.2-1.2c-0.3-0.3-0.5-0.6-0.7-1
				c-0.1-0.5,0.1-1.1,0.2-1.6c-0.4,0.3-0.8,0.7-1.3,0.9c-0.4,0.1-0.7-0.1-1.1-0.1c1.3-0.7,2.6-1.4,3.9-2.1c-0.4,0.8-0.8,1.6-0.7,2.5
				c0.2,0.4,0.4,0.7,0.7,0.9c0.9,0.1,1.5-0.7,1.6-1.5C62.1,47.4,61.6,46.5,61.3,45.7z M58.8,52.3c0.5,0.4,0.9,0.8,1.5,1
				c0.2-0.3,0.5-0.6,0.8-0.8c-0.3-0.5-0.7-0.9-1.1-1.4C59.3,51.2,58.9,51.7,58.8,52.3z"/>
		</g>
		<g id="XMLID_101_">
			<path id="XMLID_102_" class="st2" d="M32.2,42.8c1.5,0.8,3,1.4,4.4,2.3l-0.2,0.2c0.2,0.1,0.4,0.1,0.5-0.1
				c0.3,0.1,0.5,0.2,0.8,0.4l0,0.1c0,1,1,1.4,1.6,2c0.6,0.5,1.4,0.2,2-0.2c0.4,0.2,0.9,0.5,1.3,0.7c-0.3,0.1-0.6,0.2-0.9,0.3
				c-0.1,0.4-0.2,0.7-0.1,1.1c0.3,0.5,0.7,0.9,1.1,1.3c-1.7,0.7-3.4,1.4-5.1,2.1c0-0.1,0-0.2,0-0.2c0.1-0.1,0.3-0.3,0.4-0.4
				c-0.2-0.5-0.5-1.1-1.2-1c-0.5,0.3-0.8,0.8-1.2,1.2c0.3,0.3,0.6,0.6,0.9,0.9c-0.3,0.1-0.6,0.2-0.9,0.4c-0.5-0.3-0.9-0.6-1.5-0.8
				c-1,0.3-1.7,1.1-1.9,2.2c-0.4,0.2-0.8,0.3-1.1,0.5c0-0.5,0-0.9,0-1.4c1.8-1.2,3.7-2.4,5.5-3.5c-0.1-0.2-0.2-0.3-0.3-0.5
				c0.3-0.3,0.8-0.6,0.9-1.1c-0.1-0.9-0.2-1.9-0.9-2.5c-0.3-0.3-0.7-0.6-1.1-0.8c-0.1,0.5-0.3,1-0.6,1.4c-0.2-0.3-0.3-0.6-0.5-0.9
				c0.2-0.5,0.3-1,0.4-1.6c-0.4,0-0.7,0.2-1,0.5C33,44.3,32.5,43.6,32.2,42.8z M38,47.8c0.1,0.5,0.3,1,0.2,1.4
				c-0.3,0.4-0.6,0.7-0.8,1.1c0.6,0.1,1,0.6,1.2,1.1c0.4-0.2,0.7-0.5,1.1-0.7c0.6,0,1.2,0.2,1.8,0.2c-0.3-0.4-0.7-0.7-1-1.1
				c-0.1-0.4,0-0.9,0.1-1.3c-0.5,0-1,0.1-1.5,0C38.8,48.3,38.4,48.1,38,47.8z"/>
		</g>
		<path id="XMLID_100_" class="st2" d="M55.2,49c0.3-0.1,0.5-0.3,0.8-0.4c0,0.5,0.3,1-0.1,1.4c-0.2,0.3-0.5,0.5-0.7,0.8
			c-0.2-0.2-0.4-0.3-0.6-0.5C54.9,50,55.1,49.5,55.2,49z"/>
		<g id="XMLID_94_">
			<path id="XMLID_95_" class="st2" d="M51.2,54.9c0.1-0.3,0.1-0.6,0.5-0.6c0,0,0.1,0,0.1,0.1c0,0.2,0,0.4,0.1,0.7
				c0.4,0.2,0.8-0.1,1.2-0.2c0.2,0.2,0.5,0.4,0.7,0.6c-0.3,0.2-0.6,0.3-1,0.5c0.5,0.5,0.9,1.1,1.5,1.4c0.8,0.3,1.6,0.4,2.4,0.4
				c0.3,0.1,0.5,0.3,0.7,0.5c-0.2,0.1-0.4,0.3-0.6,0.4c-0.4,0-0.9-0.1-1.3-0.1c0.2,0.3,0.5,0.6,0.6,0.9c0,0.5-0.1,0.9-0.2,1.4
				c0.4-0.1,0.9-0.1,1.3-0.1c0.5-0.1,0.8,0.3,1.2,0.6c-0.1-0.6-0.3-1.4,0.5-1.7c0.3,0,0.4,0.3,0.7,0.4c-0.4,0.8-0.1,1.6,0.1,2.4
				c0.3,0.6,1,1,1.5,1.5c0.3-0.6,0.5-1.3,0.8-1.9c0.9,0.7,1.9,1.5,2.8,2.2c-0.4,0.3-0.9,0.5-0.9,1c0.2,0.3,0.5,0.2,0.8,0.2
				c0.1-0.4,0.2-0.8,0.3-1.1c0.9,0.7,1.8,1.4,2.7,2.1c-0.2,0.3-0.5,0.5-0.7,0.8c0.7,0.2,1.4,0.5,2.2,0.4c0.7,0.4,1.5,0.9,1.8,1.6
				c-1.8-0.7-3.4-1.5-5.2-2.2c0.3-0.4,0.6-0.8,0.9-1.2c-0.4,0.1-0.9,0.2-1.3,0.3c0,0.2-0.1,0.5-0.1,0.6c-2.1-0.9-4.2-1.9-6.3-2.8
				c-0.2-1-1.1-1.6-1.8-2.1c-0.5-0.1-0.9,0-1.4,0.1c0,0.1-0.1,0.4-0.1,0.6c-0.6-0.2-1.5-0.9-1.9-0.1c-0.6-0.1-1.1-0.5-1.6-1
				c0.1,0.5,0.2,1,0.3,1.4c-0.3,0.4-0.6,0.8-0.9,1.2c0.1,0,0.4,0.1,0.5,0.1c-0.6,0.7-1.3,1.3-1.9,2c-0.6,0.7-1.3,1.3-1.8,2.1
				c0.1-1.7,0.7-3.4,1-5.1c0.4,0.1,0.8,0.3,1.2,0.4c0.3-0.3,0.6-0.6,0.8-0.9c0-1.1-0.3-2.2-1.2-2.8C50.5,58,50.8,56.5,51.2,54.9z
				 M51.2,56.8c0.5,0.1,0.9,0.3,1.4,0.3c-0.3-0.4-0.6-0.7-0.9-1C51.3,56.2,51.1,56.5,51.2,56.8z M51.5,57.7c0.1,0.7,0.2,1.4,0.5,2
				c0.5,0.6,1.1,1.1,1.8,1.4c0.4,0,0.8,0,1.2-0.1c0.1-0.6,0.5-1.3,0-1.7c-0.4-0.4-0.9-0.9-1.4-1.3C52.9,57.9,52.2,57.8,51.5,57.7z
				 M62.1,64.5c0.1,0.1,0.3,0.2,0.4,0.2c0.1,0,0.3-0.1,0.4-0.2c-0.1-0.4-0.2-0.8-0.3-1.2C62.3,63.7,62.2,64.1,62.1,64.5z"/>
		</g>
		<g id="XMLID_88_">
			<path id="XMLID_89_" class="st2" d="M43,55.4c0.8-0.3,1.5-0.6,2.3-0.9c0.2,0,0.5,0,0.7,0c-0.2,0.3-0.3,0.6-0.5,0.9
				c0.3,0.1,0.6,0.3,0.9,0.4c-0.6,2.5-1.1,5.1-1.7,7.6c-0.2-0.3-0.5-0.6-0.6-0.9c0-0.5,0.1-1,0.2-1.5c-0.4,0.3-0.8,0.6-1.2,0.8
				c-0.4,0.1-0.9,0-1.3,0c0,0.4,0,0.9,0.1,1.3c-0.3-0.5-0.6-1.1-0.9-1.6c-1.8,0-3.5,0.1-5.3,0.1c0.5-0.1,1-0.1,1.4-0.2
				c0.1-0.4,0.2-0.8,0.2-1.2c-0.2-0.4-0.5-0.7-0.8-1c-0.4,0.2-0.8,0.3-1.2,0.5c-0.2,0.6-0.4,1.3-0.5,1.9l-0.2,0c-0.3,0-0.6,0-1-0.1
				c-0.2-0.7-0.3-1.4-0.7-2.1l0-0.1c2.2-0.7,4.2-1.7,6.4-2.6c0.3,0.2,0.7,0.4,1,0.7c0.7-0.1,1.4-0.2,2.1-0.5c0.6-0.4,1-0.9,1.4-1.4
				C43.5,55.7,43.3,55.6,43,55.4L43,55.4z M44.8,56.2c-0.4,0.2-0.6,0.6-0.9,1c0.5-0.1,0.9-0.1,1.3-0.4
				C45.4,56.5,45.1,56.1,44.8,56.2z M42.8,58.2c-0.5,0.4-1,0.9-1.4,1.4c-0.2,0.5,0,1,0.1,1.5c0.4,0,0.8,0.1,1.2,0.1
				c0.7-0.4,1.3-0.9,1.8-1.5c0.3-0.6,0.3-1.3,0.5-2C44.2,57.9,43.5,57.9,42.8,58.2z M37.5,59c0.2,0.4,0.5,0.7,0.8,1.1
				c0,0.5-0.2,1.1-0.3,1.6c0.4-0.3,0.8-0.6,1.2-1c0.5,0,0.9,0.1,1.4,0.1c0-0.5-0.1-0.9-0.1-1.4c0.3-0.4,0.6-0.7,0.9-1
				c-0.5,0.1-1,0.2-1.5,0.2c-0.5-0.1-0.8-0.5-1.2-0.7C38.4,58.4,38,58.7,37.5,59z"/>
		</g>
		<path id="XMLID_87_" class="st2" d="M28.5,55.7c0.3-0.2,0.5-0.3,0.8-0.5c0.2,0.2,0.4,0.5,0.6,0.7l0,0c-0.4,0.1-0.7,0.3-1.1,0.4
			C28.7,56.2,28.6,55.9,28.5,55.7z"/>
		<path id="XMLID_86_" class="st2" d="M68.9,60.7c0-0.5-0.1-1,0.1-1.5c0.7,0.9,1.2,1.8,1.9,2.7c-0.3,0.1-0.7,0.2-1,0.3
			c-0.5-0.4-1.1-0.8-1.6-1.2C68.4,60.9,68.7,60.8,68.9,60.7z"/>
		<path id="XMLID_85_" class="st2" d="M155.5,59.9c0.4,0,0.8,0,1.3,0c0,0.5,0,1,0,1.5c0.4,0,0.7,0,1.1,0c0,0.3,0,0.7,0,1
			c-0.4,0-0.7,0-1.1,0c0,0.7-0.1,1.3,0,2c0.2,0.3,0.7,0.2,1,0.3c0,0.3,0,0.6,0,1c-0.8,0-1.8,0.2-2.2-0.6c-0.2-0.8-0.1-1.7-0.1-2.6
			c-0.2,0-0.5,0-0.7,0c0-0.3,0-0.7,0-1c0.2,0,0.5,0,0.7-0.1C155.5,60.8,155.5,60.4,155.5,59.9z"/>
		<g id="XMLID_81_">
			<path id="XMLID_82_" class="st2" d="M143.3,65.6c0.7-1.9,1.5-3.8,2.4-5.8c0.5,0,1,0,1.5,0c0.8,1.9,1.7,3.8,2.4,5.7
				c-0.5,0-1.1,0-1.6,0c-0.2-0.4-0.3-0.8-0.5-1.2c-0.7,0-1.4,0-2.2,0c-0.2,0.4-0.3,0.8-0.5,1.2C144.4,65.6,143.8,65.6,143.3,65.6z
				 M146.4,61.7c-0.2,0.5-0.4,1-0.6,1.5c0.4,0,0.8,0,1.2,0C146.8,62.7,146.7,62.2,146.4,61.7z"/>
		</g>
		<path id="XMLID_80_" class="st2" d="M159.7,59.9c0.4,0,0.9,0,1.3,0c0,0.4,0,0.8,0,1.2c-0.4,0-0.9,0-1.3,0
			C159.7,60.7,159.7,60.3,159.7,59.9z"/>
		<path id="XMLID_79_" class="st2" d="M163.6,61.4c0-0.5,0.1-1.2,0.6-1.4c0.6-0.2,1.3-0.1,1.9-0.1c0,0.3,0,0.7,0,1
			c-0.4,0-1.1-0.2-1.1,0.5c0.4,0,0.8,0,1.1,0c0,0.3,0,0.7,0,1c-0.4,0-0.7,0-1.1,0c0,1.1,0,2.1,0,3.2c-0.5,0-0.9,0-1.3,0
			c0-1.1,0-2.1,0-3.2c-0.3,0-0.5,0-0.8,0c0-0.3,0-0.7,0-1C163.1,61.4,163.4,61.4,163.6,61.4z"/>
		<path id="XMLID_78_" class="st2" d="M167.9,59.9c0.4,0,0.9,0,1.3,0c0,0.4,0,0.8,0,1.2c-0.4,0-0.9,0-1.3,0
			C167.9,60.7,167.9,60.3,167.9,59.9z"/>
		<path id="XMLID_77_" class="st2" d="M177,59.9c0.4,0,0.9,0,1.3,0c0,0.4,0,0.8,0,1.2c-0.4,0-0.9,0-1.3,0
			C177,60.7,177,60.3,177,59.9z"/>
		<path id="XMLID_76_" class="st2" d="M186,59.9c0.4,0,0.9,0,1.3,0c0.1,1.9,0,3.8,0,5.7c-0.4,0-0.9,0-1.3,0
			C186,63.7,186,61.8,186,59.9z"/>
		<path id="XMLID_75_" class="st2" d="M189.3,65.6c-0.1-1.9,0-3.9,0-5.8c0.4,0,0.9,0,1.3,0c0,1.9,0,3.8,0,5.7
			C190.2,65.6,189.8,65.6,189.3,65.6z"/>
		<path id="XMLID_74_" class="st2" d="M29.9,60.8c0.3-0.1,0.7-0.2,1-0.4c0.1,0.4,0.2,0.9,0.3,1.3c-0.9,0.1-1.9,0.3-2.7-0.4
			c0.4-0.2,0.8-0.3,1.3-0.5l0.2,0.2C29.9,61.1,29.9,60.9,29.9,60.8z"/>
		<path id="XMLID_73_" class="st2" d="M151,61.3c0.4,0,1-0.1,1.4,0.1c0.4-0.2,0.8-0.2,1.2-0.2c0,0.4,0,0.8,0,1.2c-0.4,0-0.8,0-1.2,0
			c0,1.1,0,2.1,0,3.2c-0.4,0-0.9,0-1.3,0C151,64.2,151,62.7,151,61.3z"/>
		<path id="XMLID_72_" class="st2" d="M159.7,61.3c0.4,0,0.9,0,1.3,0c0,1.4,0,2.9,0,4.3c-0.4,0-0.9,0-1.3,0
			C159.7,64.2,159.7,62.7,159.7,61.3z"/>
		<path id="XMLID_71_" class="st2" d="M167.9,61.3c0.4,0,0.9-0.2,1.3,0.1c0,1.4,0,2.8,0,4.2c-0.4,0-0.9,0-1.3,0
			C167.9,64.2,167.9,62.7,167.9,61.3z"/>
		<path id="XMLID_70_" class="st2" d="M172.4,61.5c0.9-0.3,1.8-0.1,2.7-0.1c0,0.4,0,0.8,0,1.1c-0.6,0-1.3,0-1.9,0.1
			c-0.8,0.3-0.9,1.6-0.1,1.9c0.7,0.2,1.4,0,2.1,0.1c0,0.3,0,0.7,0,1c-1,0-2.2,0.2-3.1-0.3C170.6,64.5,170.8,62,172.4,61.5z"/>
		<path id="XMLID_69_" class="st2" d="M177,61.3c0.4,0,0.8,0,1.3,0c0.1,1.4,0.1,2.9,0,4.3c-0.4,0-0.8,0-1.3,0
			C176.9,64.2,177,62.7,177,61.3z"/>
		<path id="XMLID_68_" class="st2" d="M180.6,65c-1-1.1-0.5-3.1,1-3.6c0.8-0.1,1.6,0,2.4,0c0,0.3,0,0.7,0,1c-0.8,0.1-2-0.3-2.4,0.6
			c0.8,0,1.6,0,2.4,0c0,0.3,0,0.7,0,1c-0.8,0-1.6,0-2.4,0c0.4,1,1.6,0.5,2.4,0.6c0,0.3,0,0.6,0,1C182.9,65.5,181.4,66,180.6,65z"/>
		<path id="XMLID_67_" class="st2" d="M193,65c-1-1.1-0.6-3.1,0.9-3.6c0.8-0.2,1.6-0.1,2.5-0.1c0,0.4,0,0.7,0,1.1
			c-0.8,0.1-2-0.4-2.4,0.6c0.8,0,1.6,0,2.4,0c0.2,0.3,0,0.7,0.1,1c-0.8,0-1.6,0-2.4,0c0.4,1,1.7,0.4,2.5,0.6c0,0.3,0,0.6,0,0.9
			C195.2,65.5,193.8,66,193,65z"/>
		<path id="XMLID_66_" class="st2" d="M43.6,64.8c0.2-0.4,0.5-0.8,0.9-0.9c-0.2,1-0.4,2.1-0.7,3.1c-0.6-0.8-1-1.8-1.5-2.7
			C42.8,64.2,43.2,64.6,43.6,64.8z"/>
	</g>
	<g id="XMLID_4_">
		<path id="XMLID_64_" class="st3" d="M66.6,35.6c0.8-0.2,1.7-0.6,2.5-0.9c0.1,0.4,0.2,0.9,0.4,1.4c-1.2,0.7-2.4,1.3-3.6,2
			C65.8,37.2,66.1,36.4,66.6,35.6L66.6,35.6z"/>
		<path id="XMLID_63_" class="st3" d="M62.2,37.2c0.1,0,0.3-0.1,0.4-0.2c0.1,0.3,0.1,0.7,0.1,1c-0.3,0-0.5-0.1-0.7-0.2
			C62.1,37.6,62.2,37.4,62.2,37.2z"/>
		<path id="XMLID_62_" class="st3" d="M64,38.2c0.3-0.3,0.7-0.7,1-1c-0.1,0.4-0.1,0.9-0.1,1.4l0,0.1c-0.1,0.1-0.3,0.1-0.4,0.2
			C64.3,38.6,64.2,38.4,64,38.2z"/>
		<path id="XMLID_61_" class="st3" d="M60,37.9c0.3-0.1,0.5-0.2,0.8-0.2c0,0.3,0,0.7,0,1C60.4,38.6,60.2,38.3,60,37.9L60,37.9z"/>
		<path id="XMLID_60_" class="st3" d="M60.5,39.5c0.6,0,1-0.2,1.3-0.7c0.2,0.1,0.4,0.2,0.6,0.3c0.2-0.1,0.5-0.2,0.7-0.3
			c0.1,0.1,0.3,0.3,0.5,0.4c-1.2,0.6-2.4,1.3-3.6,1.9c-0.1-0.2-0.2-0.4-0.2-0.5c0.2-0.2,0.4-0.3,0.7-0.4
			C60.5,40,60.5,39.8,60.5,39.5z"/>
		<path id="XMLID_59_" class="st3" d="M53.8,40.1c1-0.4,2-0.7,3.1-1.1c0.3,0.4,0.7,0.8,1,1.2c-0.4,0.1-0.7,0.3-1.1,0.4
			C55.8,41,54.7,40.6,53.8,40.1L53.8,40.1z"/>
		<path id="XMLID_58_" class="st3" d="M58.2,39c0.5,0.1,1.3,0,1.4,0.6C59.1,40.3,58.5,39.4,58.2,39z"/>
		<path id="XMLID_57_" class="st3" d="M38.6,40.1c1.2,0.1,2.3,0.1,3.5,0.3C41,41.1,39.6,40.9,38.6,40.1z"/>
		<path id="XMLID_56_" class="st3" d="M72.5,40c0.3,0.1,0.6,0.2,0.8,0.4c-0.5,0.5-1.1,1-1.6,1.4c-0.3-0.2-0.6-0.3-0.9-0.5
			c0.4-0.1,0.8-0.3,1.2-0.4C72.2,40.6,72.3,40.3,72.5,40z"/>
		<path id="XMLID_55_" class="st3" d="M43.8,40.4c0.7,0,1.3,0,2,0.1c-0.1,0-0.4,0.1-0.6,0.1c0.2,0.8,0,1.9-0.9,2.2
			c-0.4-0.2-0.5-0.7-0.7-1c-0.3-0.2-0.7-0.3-1.1-0.5c0.4-0.1,0.8-0.3,1.2-0.4C43.7,40.8,43.8,40.5,43.8,40.4z"/>
		<path id="XMLID_54_" class="st3" d="M51.2,40.9c0.5,0,0.9-0.2,1.4-0.4c0.3,0.6,1,0.7,1.6,0.9c-0.4,0.1-0.8,0.2-1.1,0.4
			c-0.3,0.3-0.5,0.7-0.7,1c-0.4-0.2-0.8-0.4-1-0.8C51.2,41.6,51.2,41.3,51.2,40.9z"/>
		<path id="XMLID_53_" class="st3" d="M46.6,40.6c1.3,0.1,2.5,0.1,3.8,0.3c-0.1,0-0.2,0-0.3,0c0.4,1.1-0.7,2.1-1.7,2.3
			C47.1,43,45.9,41.8,46.6,40.6z"/>
		<path id="XMLID_52_" class="st3" d="M57.3,41.3c0.5-0.2,1-0.2,1.6-0.2c0,0.2,0.1,0.5,0.2,0.7c-0.1,0.1-0.2,0.1-0.3,0.2
			C58.3,41.7,57.8,41.5,57.3,41.3z"/>
		<path id="XMLID_51_" class="st3" d="M55.9,41.9c0.7,0,1.3,0.4,1.9,0.5c-1.2,0.7-2.3,1.3-3.5,1.9c-0.3-0.3-0.7-0.5-1-0.8
			c0.2-0.4,0.3-0.8,0.5-1.1C54.5,42.2,55.2,42,55.9,41.9z"/>
		<path id="XMLID_50_" class="st3" d="M67.1,42.5c0.4-0.2,0.7-0.5,1.2-0.6c0.9,0,1.8,0.2,2.7,0.6c-0.6,0.6-1.3,1.1-1.9,1.7
			C68.2,43.9,67.6,43.3,67.1,42.5z"/>
		<path id="XMLID_49_" class="st3" d="M40.6,42c0.7,0.1,1.4,0.2,2,0.5c0.1,0.2,0.2,0.5,0.3,0.7C42.2,42.9,41.4,42.5,40.6,42z"/>
		<path id="XMLID_48_" class="st3" d="M44.3,44c0.5-0.4,0.9-0.8,1.4-1.2c0.3,0.2,0.7,0.5,1,0.7c-0.3,0.4-0.6,0.8-1,1.2
			C45.3,44.5,44.8,44.2,44.3,44L44.3,44z"/>
		<path id="XMLID_47_" class="st3" d="M49.7,43.6c0.3-0.2,0.6-0.5,0.9-0.8c0.5,0.3,1,0.7,1.5,1.1c-0.2,0.5-0.6,1-1.2,0.9
			C50.4,44.4,50.1,44,49.7,43.6z"/>
		<path id="XMLID_46_" class="st3" d="M47.9,44.2c0.7-0.2,1.7,0.3,1.8,1.1c-0.5,0.3-0.9,0.5-1.3,0.9c-0.6-0.3-1.1-0.6-1.7-0.9
			C47,44.8,47.3,44.3,47.9,44.2z"/>
		<path id="XMLID_45_" class="st3" d="M65.7,44.4c0.9,0.1,1.8,0.3,2.6,0.5c-0.7,0.6-1.3,1.2-2,1.8C66,46,65.8,45.2,65.7,44.4z"/>
		<path id="XMLID_44_" class="st3" d="M33.4,45.1c0.3-0.2,0.6-0.4,1-0.5c-0.1,0.5-0.2,1-0.4,1.6C33.8,45.8,33.6,45.5,33.4,45.1z"/>
		<path id="XMLID_43_" class="st3" d="M35.2,45.6c0.4,0.3,0.8,0.5,1.1,0.8c0.7,0.6,0.8,1.6,0.9,2.5c-0.1,0.5-0.6,0.7-0.9,1.1
			c-0.6-1-1.1-2-1.7-3C34.9,46.6,35,46.1,35.2,45.6z"/>
		<path id="XMLID_42_" class="st3" d="M37.6,45.6c1.2,0.5,2.4,1.2,3.6,1.8c-0.5,0.4-1.4,0.7-2,0.2C38.5,47,37.6,46.6,37.6,45.6z"/>
		<path id="XMLID_41_" class="st3" d="M60.2,46.3c0.4-0.2,0.8-0.4,1.2-0.6c0.3,0.8,0.8,1.7,0.4,2.6c-0.1,0.8-0.7,1.6-1.6,1.5
			c-0.3-0.3-0.6-0.6-0.7-0.9C59.4,48,59.7,47.2,60.2,46.3L60.2,46.3z"/>
		<path id="XMLID_40_" class="st3" d="M63.6,45.6c0.7,0.6,1.6,1,1.7,2c-0.6,0.5-1.2,1.1-1.8,1.6c-0.1-0.6-0.4-1.2-0.4-1.8
			C63.1,46.8,63.4,46.2,63.6,45.6z"/>
		<path id="XMLID_39_" class="st3" d="M57.3,48.6c0.5-0.3,0.9-0.6,1.3-0.9c-0.1,0.5-0.3,1.1-0.2,1.6c0.2,0.4,0.5,0.7,0.7,1
			c-0.5,0.3-0.9,0.7-1.2,1.2c-0.4-0.3-0.7-0.6-1.2-0.7c-0.4,0-0.9,0.1-1.3,0.2c-0.1,0-0.2-0.1-0.3-0.1l0.1-0.1
			c0.2-0.3,0.5-0.5,0.7-0.8c0.4-0.4,0.1-1,0.1-1.4c0,0,0.1-0.1,0.2-0.1C56.6,48.5,57,48.7,57.3,48.6z"/>
		<path id="XMLID_38_" class="st3" d="M38,47.8c0.4,0.2,0.7,0.5,1.1,0.8c0.5,0,1,0,1.5,0c0,0.4-0.2,0.9-0.1,1.3
			c0.3,0.4,0.7,0.7,1,1.1c-0.6,0-1.2-0.2-1.8-0.2c-0.4,0.2-0.7,0.5-1.1,0.7c-0.3-0.5-0.6-1-1.2-1.1c0.2-0.4,0.5-0.7,0.8-1.1
			C38.3,48.8,38.1,48.3,38,47.8z"/>
		<path id="XMLID_37_" class="st3" d="M42.4,48.1c0.6,0.4,1.9,0.6,1.8,1.6c-0.2,0.7-1.2,0.8-1.8,1.1c-0.4-0.4-0.8-0.8-1.1-1.3
			c0-0.4,0.1-0.7,0.1-1.1C41.8,48.3,42.1,48.2,42.4,48.1z"/>
		<path id="XMLID_36_" class="st3" d="M54.6,50.4c-0.1-0.5,0.1-1.1,0.6-1.3C55.1,49.5,54.9,50,54.6,50.4z"/>
		<path id="XMLID_35_" class="st3" d="M62.5,49.3c0.2,0.2,0.3,0.3,0.5,0.5c-0.1,0.1-0.2,0.2-0.3,0.3c0.3,0.5,0.7,0.9,1,1.4
			c-0.5,0.2-1.1,0.5-1.6,0.3c-0.5-0.1-0.7-0.6-1-1c0.4-0.2,0.8-0.3,1.1-0.6C62.2,49.9,62.3,49.6,62.5,49.3z"/>
		<path id="XMLID_34_" class="st3" d="M36.7,51.2c0.6-0.1,1,0.5,1.2,1c-0.2,0.1-0.3,0.3-0.4,0.4c0,0.1,0,0.2,0,0.2l0,0.1
			c-0.3,0.1-0.7,0.2-1,0.3c-0.3-0.3-0.6-0.6-0.9-0.9C35.9,52,36.2,51.5,36.7,51.2z"/>
		<path id="XMLID_33_" class="st3" d="M58.8,52.3c0.1-0.6,0.5-1.1,1.2-1.2c0.4,0.4,0.7,0.9,1.1,1.4c-0.3,0.2-0.5,0.5-0.8,0.8
			C59.7,53,59.3,52.6,58.8,52.3z"/>
		<path id="XMLID_32_" class="st3" d="M32.2,55c0.1-1,0.9-1.8,1.9-2.2c0.5,0.2,1,0.5,1.5,0.8C34.4,54.1,33.3,54.5,32.2,55z"/>
		<path id="XMLID_31_" class="st3" d="M62,53.1c0.6-0.4,1.2,0,1.7,0.4c0.4,0.4,0.9,1,0.5,1.6c-0.3,0.7-1,1.1-1.7,1.4
			c-0.7-0.5-1.4-1.1-2.1-1.6l0,0C60.9,54.2,61.2,53.4,62,53.1z"/>
		<path id="XMLID_30_" class="st3" d="M29.3,55.2c0.6-0.4,1.2-0.7,1.8-1.1c0,0.5,0,0.9,0,1.4c-0.4,0.1-0.7,0.3-1.1,0.4
			C29.7,55.7,29.5,55.4,29.3,55.2z"/>
		<path id="XMLID_29_" class="st3" d="M51.5,54.2c0.6-0.2,1.1,0.3,1.5,0.6c-0.4,0.1-0.8,0.3-1.2,0.2c0-0.2,0-0.4-0.1-0.7
			c0,0-0.1,0-0.1-0.1L51.5,54.2z"/>
		<path id="XMLID_28_" class="st3" d="M45.3,54.5c0.3-0.1,0.7-0.2,1,0c0.4,0.3,0.2,0.9,0.1,1.3c-0.3-0.1-0.6-0.3-0.9-0.4
			c0.2-0.3,0.3-0.6,0.5-0.9C45.8,54.5,45.5,54.5,45.3,54.5z"/>
		<path id="XMLID_27_" class="st3" d="M53.7,55.4c1,0.8,2,1.5,2.9,2.3c-0.8,0-1.7-0.1-2.4-0.4c-0.6-0.4-1-0.9-1.5-1.4
			C53.1,55.7,53.4,55.5,53.7,55.4z"/>
		<path id="XMLID_26_" class="st3" d="M39.1,57c1.3-0.5,2.6-1.1,4-1.6c0.2,0.1,0.4,0.3,0.6,0.5c-0.5,0.5-0.9,1-1.4,1.4
			c-0.7,0.3-1.4,0.3-2.1,0.5C39.8,57.5,39.5,57.2,39.1,57z"/>
		<path id="XMLID_25_" class="st3" d="M25.4,57.8c1-0.8,2.1-1.4,3.1-2.1c0.1,0.2,0.2,0.4,0.3,0.7C27.7,56.8,26.5,57.4,25.4,57.8z"/>
		<path id="XMLID_24_" class="st3" d="M44.8,56.2c0.3-0.1,0.6,0.3,0.4,0.6c-0.4,0.2-0.9,0.3-1.3,0.4C44.1,56.8,44.4,56.4,44.8,56.2z
			"/>
		<path id="XMLID_23_" class="st3" d="M51.2,56.8c-0.1-0.4,0.1-0.6,0.5-0.7c0.3,0.3,0.6,0.7,0.9,1C52.2,57.1,51.7,57,51.2,56.8z"/>
		<path id="XMLID_22_" class="st3" d="M63.9,56.9c0.3-0.3,0.6-0.5,0.9-0.8c0.5,0.3,1,0.6,1.4,1.1c-0.1,0.6-0.8,0.9-1.3,1.2l-0.1,0
			l0-0.1C64.7,57.7,64.3,57.3,63.9,56.9z"/>
		<path id="XMLID_21_" class="st3" d="M42.8,58.2c0.7-0.3,1.5-0.3,2.2-0.5c-0.1,0.7-0.2,1.4-0.5,2c-0.5,0.6-1.1,1.1-1.8,1.5
			c-0.4,0-0.8,0-1.2-0.1c-0.1-0.5-0.3-1-0.1-1.5C41.8,59.1,42.3,58.6,42.8,58.2z"/>
		<path id="XMLID_20_" class="st3" d="M51.5,57.7c0.7,0.1,1.4,0.2,2.1,0.4c0.5,0.3,0.9,0.8,1.4,1.3c0.5,0.5,0.1,1.2,0,1.7
			c-0.4,0-0.8,0.1-1.2,0.1c-0.7-0.4-1.3-0.9-1.8-1.4C51.7,59.1,51.6,58.4,51.5,57.7z"/>
		<path id="XMLID_19_" class="st3" d="M37.5,59c0.5-0.3,1-0.6,1.2-1.1c0.4,0.2,0.7,0.6,1.2,0.7c0.5,0,1-0.1,1.5-0.2
			c-0.3,0.3-0.6,0.7-0.9,1c-0.1,0.5,0,0.9,0.1,1.4c-0.5,0-0.9-0.1-1.4-0.1c-0.4,0.4-0.8,0.7-1.2,1c0.1-0.5,0.3-1.1,0.3-1.6
			C38,59.7,37.6,59.4,37.5,59z"/>
		<path id="XMLID_18_" class="st3" d="M65.8,59c0.5-0.3,1-0.6,1.3-1.1c0.5,0.3,0.9,0.6,1.5,0.7l0.1,0c0.1,0.2,0.2,0.4,0.4,0.5
			c-0.2,0.5-0.1,1-0.1,1.5c-0.1,0.1-0.4,0.2-0.6,0.2C67.5,60.3,66.7,59.6,65.8,59z"/>
		<path id="XMLID_17_" class="st3" d="M57.4,58.2c0.5,0.4,1.1,0.8,1.6,1.3l0,0.1c-0.7,0.3-0.6,1.1-0.5,1.7c-0.4-0.2-0.7-0.6-1.2-0.6
			c-0.4,0-0.9,0.1-1.3,0.1c0.1-0.5,0.2-0.9,0.2-1.4c-0.1-0.3-0.4-0.6-0.6-0.9c0.4,0,0.9,0.1,1.3,0.1C57,58.5,57.2,58.3,57.4,58.2z"
			/>
		<path id="XMLID_16_" class="st3" d="M35.2,59.9c0.4-0.2,0.8-0.4,1.2-0.5c0.3,0.3,0.6,0.6,0.8,1c0,0.4-0.1,0.8-0.2,1.2
			c-0.5,0.1-1,0.1-1.4,0.2c-0.3,0-0.6,0-1,0.1C34.8,61.2,35,60.5,35.2,59.9z"/>
		<path id="XMLID_15_" class="st3" d="M50.2,59.5c0.9,0.6,1.2,1.8,1.2,2.8c-0.2,0.3-0.5,0.6-0.8,0.9c-0.4-0.1-0.8-0.3-1.2-0.4
			C49.7,61.8,49.9,60.6,50.2,59.5z"/>
		<path id="XMLID_14_" class="st3" d="M30.9,60.4c0.6-0.2,1.3-0.5,1.9-0.7c0.4,0.6,0.5,1.4,0.7,2.1c0.3,0,0.6,0,1,0.1
			c-2.1,0-4.2,0.1-6.3,0.1c0.1-0.2,0.2-0.4,0.3-0.5c0.8,0.6,1.8,0.5,2.7,0.4C31.1,61.3,31,60.9,30.9,60.4L30.9,60.4z"/>
		<path id="XMLID_13_" class="st3" d="M59.6,59.9c0.8,0.7,1.7,1.3,2.5,1.9c-0.3,0.6-0.6,1.3-0.8,1.9c-0.5-0.4-1.2-0.8-1.5-1.5
			C59.5,61.5,59.2,60.6,59.6,59.9z"/>
		<path id="XMLID_12_" class="st3" d="M43.1,61.9c0.4-0.2,0.8-0.6,1.2-0.8c-0.1,0.5-0.2,1-0.2,1.5c0.2,0.3,0.4,0.6,0.6,0.9
			c0,0.1-0.1,0.3-0.1,0.4l0,0c-0.4,0.2-0.7,0.6-0.9,0.9c-0.4-0.2-0.8-0.6-1.3-0.5h0c-0.2-0.3-0.4-0.7-0.5-1c0-0.4,0-0.9-0.1-1.3
			C42.2,62,42.6,62,43.1,61.9z"/>
		<path id="XMLID_11_" class="st3" d="M52.2,61.2c0.5,0.4,0.9,0.8,1.6,1c-0.5,0.6-1.1,1.2-1.6,1.8c-0.1,0-0.4-0.1-0.5-0.1
			c0.3-0.4,0.6-0.8,0.9-1.2C52.3,62.1,52.3,61.6,52.2,61.2z"/>
		<path id="XMLID_10_" class="st3" d="M55.8,61.6c0.4,0,0.9-0.1,1.4-0.1c0.8,0.5,1.6,1.2,1.8,2.1c-1.1-0.5-2.2-1-3.3-1.5
			C55.7,62.1,55.8,61.8,55.8,61.6z"/>
		<path id="XMLID_9_" class="st3" d="M69.9,62.2c0.3-0.1,0.7-0.2,1-0.3c0.5,0.7,1,1.4,1.4,2.1C71.5,63.4,70.7,62.8,69.9,62.2z"/>
		<path id="XMLID_8_" class="st3" d="M62.1,64.5c0.1-0.4,0.2-0.8,0.5-1.2c0.1,0.4,0.2,0.8,0.3,1.2c-0.1,0-0.3,0.1-0.4,0.2
			C62.4,64.7,62.2,64.6,62.1,64.5z"/>
		<path id="XMLID_7_" class="st3" d="M64.9,64l0.1-0.1L64.9,64c0,0.4-0.1,0.8-0.2,1.2c-0.3,0-0.6,0-0.8-0.2
			C64.1,64.5,64.6,64.3,64.9,64z"/>
		<path id="XMLID_6_" class="st3" d="M65.5,65.9c0.4-0.1,0.9-0.2,1.3-0.3c-0.3,0.4-0.6,0.8-0.9,1.2c-0.2-0.1-0.4-0.1-0.5-0.2l0-0.1
			C65.4,66.3,65.5,66,65.5,65.9z"/>
		<path id="XMLID_5_" class="st3" d="M67.7,66.1c0.5,0.4,1,0.8,1.5,1.2c-0.8,0.1-1.5-0.2-2.2-0.4C67.2,66.7,67.5,66.4,67.7,66.1z"/>
	</g>
</g>
</svg>
